<svg width="370" height="420" viewBox="0 0 370 420" fill="none" xmlns="http://www.w3.org/2000/svg">
<path d="M223.834 255.387H60.489V268.998H223.834V255.387Z" fill="#EA816C"/>
<path d="M16.6748 420H2.63728C0.0850084 420 -0.76575 417.873 0.935766 415.746L110.258 101.408H133.229L23.9062 415.746C22.2047 418.299 19.2271 420 16.6748 420Z" fill="#EA816C"/>
<path d="M184.699 420H170.662C168.11 420 167.259 417.873 168.96 415.746L278.283 101.408H301.253L191.931 415.746C190.229 418.299 187.252 420 184.699 420Z" fill="#EA816C"/>
<path d="M39.22 42.2835L146.841 201.367H369.314L262.969 42.2835H39.22Z" fill="#F2DCD6"/>
<path d="M39.2199 42.2835L33.6899 49.9399L141.736 209.874L146.841 201.367L39.2199 42.2835Z" fill="#FFA9AC"/>
<path d="M168.96 201.367L67.2949 59.2978H251.909L348.47 201.367H168.96Z" fill="white"/>
<path d="M146.841 201.367L141.736 209.874H366.336L369.314 201.367H146.841Z" fill="#FF8888"/>
<path d="M343.366 220.508H177.468C171.513 220.508 166.833 215.829 166.833 209.874H354C354.426 215.829 349.321 220.508 343.366 220.508Z" fill="#EFAFA3"/>
<path d="M215.327 214.553H192.356C188.528 214.553 185.55 211.575 185.55 207.747C185.55 203.919 188.528 200.941 192.356 200.941H215.327C219.155 200.941 222.133 203.919 222.133 207.747C222.133 211.575 219.155 214.553 215.327 214.553Z" fill="#BE202E"/>
<path d="M341.664 214.553H318.694C314.865 214.553 311.888 211.575 311.888 207.747C311.888 203.919 314.865 200.941 318.694 200.941H341.664C345.493 200.941 348.47 203.919 348.47 207.747C348.47 211.575 345.493 214.553 341.664 214.553Z" fill="#BE202E"/>
<path d="M198.737 418.724H194.909C189.804 418.724 185.976 414.47 185.976 409.791V220.508H208.095V409.366C207.67 414.47 203.841 418.724 198.737 418.724Z" fill="#EFAFA3"/>
<path d="M172 184H205.438L217.215 143.471H273.365L284.721 184H319L262.85 2H228.991L172 184ZM245.395 46.8627H245.815L264.742 113.647H225.837L245.395 46.8627Z" fill="#0C1E41"/>
<path d="M343.543 172.36L347.515 169.561L312.043 119.013L308.072 121.812L343.543 172.36Z" fill="#396DB5"/>
<path d="M339.681 175.207L343.651 172.406L308.132 121.844L304.161 124.645L339.681 175.207Z" fill="#467FC1"/>
<path d="M300.335 127.392L298.744 118.156L297.435 112.107C297.379 111.47 297.854 111.042 298.385 111.251L303.655 114.247L311.905 119.032L300.335 127.392Z" fill="#A3CAE0"/>
<path d="M335.632 177.806L339.604 175.008L304.214 124.577L300.243 127.376L335.632 177.806Z" fill="#396DB5"/>
<path d="M298.745 118.156L297.437 112.107C297.38 111.47 297.855 111.042 298.387 111.251L303.656 114.247L298.745 118.156Z" fill="#0C1E41"/>
<path d="M337.606 180.805L349.524 172.404L347.388 169.361L335.47 177.762L337.606 180.805Z" fill="#FFA9AC"/>
<path d="M337.653 180.827L349.489 172.571L352.697 176.909C354.035 178.973 353.626 181.579 351.565 182.921L346.863 186.297C344.801 187.638 342.199 187.229 340.861 185.165L337.653 180.827Z" fill="#BE202E"/>
<path d="M146.841 201.367H369.314V190.308C369.314 186.479 366.336 183.502 362.508 183.502H154.072C150.244 183.502 147.266 186.479 147.266 190.308V201.367H146.841Z" fill="#FFA9AC"/>
<path d="M332.306 418.724H328.478C323.373 418.724 319.545 414.47 319.545 409.791V220.508H341.664V409.366C341.239 414.47 337.411 418.724 332.306 418.724Z" fill="#EFAFA3"/>
<path d="M222.588 66H89.2069C86.7906 66 85.3657 68.7106 86.7357 70.701L162.106 180.201C162.666 181.014 163.59 181.5 164.577 181.5H313.127C315.665 181.5 317.056 178.544 315.439 176.588L224.9 67.0883C224.33 66.399 223.482 66 222.588 66Z" stroke="#0C1E41" stroke-width="4" stroke-linecap="round" stroke-dasharray="20 20"/>
</svg>
