<svg width="319" height="41" viewBox="0 0 319 41" fill="none" xmlns="http://www.w3.org/2000/svg">
<g clip-path="url(#clip0)">
<path opacity="0.3" d="M0 14.3796C0 14.3796 18.7814 19.9775 32.451 18.6309C42.6395 17.6276 54.4112 3.94397 66.0595 5.04441C80.5691 6.41538 73.9536 17.9114 88.0491 22.642C102.509 27.496 144.671 13.7121 169.471 14.9558C199.931 16.483 202.336 28.7545 225.953 25.6581C251.748 22.2769 250.296 12.6948 291.463 5.04441C303.881 2.73711 319.101 2.25516 319.101 2.25516V38.084C319.101 38.4608 318.986 38.8339 318.762 39.182C318.538 39.53 318.21 39.8463 317.796 40.1125C317.382 40.3788 316.891 40.5898 316.351 40.7336C315.811 40.8774 315.232 40.9512 314.647 40.9506L4.44073 40.66C3.26236 40.6589 2.13286 40.3563 1.30025 39.8189C0.467647 39.2814 -1.32566e-06 38.5529 0 37.7934L0 14.3796Z" fill="#BE202E"/>
<path d="M0 14.4338C0 14.4338 18.7814 20.0563 32.451 18.7026C42.6395 17.6956 54.4112 3.9515 66.0595 5.05695C80.5691 6.43402 73.9536 17.9812 88.0491 22.7331C102.509 27.6085 144.67 13.7633 169.471 15.0117C199.931 16.5458 202.336 28.872 225.953 25.7617C251.748 22.3654 250.296 12.7406 291.463 5.05623C303.881 2.73926 319.101 2.25516 319.101 2.25516" stroke="#EB5D69" stroke-width="3" stroke-miterlimit="10" stroke-linecap="round"/>
<path d="M0 17.8841C0 17.8841 39.742 25.905 52.0813 25.905C80.5536 25.905 88.0424 1.64062 102.509 1.64062C116.976 1.64062 134.2 20.654 169.471 21.0722C191.225 21.3298 199.053 3.96797 223.877 1.64062C245.741 -0.409396 269.518 29.0236 283.288 33.235C297.059 37.4465 319.101 30.7636 319.101 30.7636" stroke="#1649A0" stroke-width="3" stroke-miterlimit="10" stroke-linecap="round"/>
<path opacity="0.5" d="M0 17.9191C0 17.9191 39.742 25.9558 52.0813 25.9558C80.5536 25.9558 88.0419 1.64123 102.509 1.64123C116.977 1.64123 134.2 20.6947 169.471 21.1136C191.225 21.372 199.053 3.9736 223.877 1.64123C245.741 -0.413085 269.518 29.0818 283.288 33.3026C297.059 37.5234 319.101 30.8255 319.101 30.8255V38.0885C319.101 38.8488 318.632 39.5779 317.798 40.1155C316.964 40.6531 315.833 40.9551 314.654 40.9551H4.4474C3.26788 40.9551 2.13666 40.6531 1.30261 40.1155C0.468564 39.5779 0 38.8488 0 38.0885V17.9191Z" fill="#1649A0"/>
</g>
<defs>
<clipPath id="clip0">
<rect width="319" height="41" fill="white"/>
</clipPath>
</defs>
</svg>
