<svg width="16" height="16" viewBox="0 0 16 16" fill="none" xmlns="http://www.w3.org/2000/svg">
<path d="M0 3C0 1.34315 1.34315 0 3 0H13C14.6569 0 16 1.34315 16 3V13C16 14.6569 14.6569 16 13 16H3C1.34315 16 0 14.6569 0 13V3Z" fill="#F5E5FD"/>
<path fill-rule="evenodd" clip-rule="evenodd" d="M7.99998 3.65001C5.59754 3.65001 3.64998 5.59758 3.64998 8.00001C3.64998 8.83757 3.88603 9.61793 4.29495 10.2806C4.38894 10.433 4.41596 10.6173 4.36963 10.7902L4.06252 11.9363L5.20818 11.6294C5.38116 11.583 5.5656 11.6101 5.71796 11.7042C6.38093 12.1136 7.16185 12.35 7.99998 12.35C10.4024 12.35 12.35 10.4024 12.35 8.00001C12.35 5.59758 10.4024 3.65001 7.99998 3.65001ZM2.34998 8.00001C2.34998 4.87961 4.87957 2.35001 7.99998 2.35001C11.1204 2.35001 13.65 4.87961 13.65 8.00001C13.65 11.1204 11.1204 13.65 7.99998 13.65C7.01634 13.65 6.0899 13.3981 5.28333 12.9551L3.31152 13.4834C3.08721 13.5436 2.84787 13.4794 2.68366 13.3152C2.51945 13.151 2.45532 12.9117 2.51543 12.6874L3.04394 10.7149C2.60151 9.90874 2.34998 8.98297 2.34998 8.00001Z" fill="#D8BAFF"/>
<path d="M9.99998 7.65001C10.359 7.65001 10.65 7.35899 10.65 7.00001C10.65 6.64102 10.359 6.35001 9.99998 6.35001H5.99998C5.64099 6.35001 5.34998 6.64102 5.34998 7.00001C5.34998 7.35899 5.64099 7.65001 5.99998 7.65001H9.99998Z" fill="#A970FE"/>
<path d="M8.49998 10.15C8.85896 10.15 9.14998 9.85899 9.14998 9.50001C9.14998 9.14102 8.85896 8.85001 8.49998 8.85001H5.99998C5.64099 8.85001 5.34998 9.14102 5.34998 9.50001C5.34998 9.85899 5.64099 10.15 5.99998 10.15H8.49998Z" fill="#A970FE"/>
</svg>
