<svg width="704" height="406" viewBox="0 0 704 406" fill="none" xmlns="http://www.w3.org/2000/svg">
<path d="M238.928 274.448H472.343L486.127 288.233" stroke="black" stroke-width="2" stroke-linecap="round" stroke-linejoin="round" stroke-dasharray="15 10"/>
<path d="M472.802 274.448L570.211 177.039V86.0627H542.643" stroke="black" stroke-width="2" stroke-linecap="round" stroke-linejoin="round" stroke-dasharray="15 10"/>
<path d="M476.018 86.0627H357.014L294.065 23.1144H192.98V53.4399" stroke="black" stroke-width="2" stroke-linecap="round" stroke-linejoin="round" stroke-dasharray="15 10"/>
<path d="M192.98 120.064V228.501L238.928 274.448L226.063 287.314" stroke="black" stroke-width="2" stroke-linecap="round" stroke-linejoin="round" stroke-dasharray="15 10"/>
<ellipse cx="166.744" cy="86.0774" rx="36.3732" ry="36.0774" fill="#314FA2"/>
<ellipse cx="219.381" cy="86.0774" rx="36.3732" ry="36.0774" fill="#BE202E"/>
<path fill-rule="evenodd" clip-rule="evenodd" d="M193.062 111.34C199.269 104.82 203.078 95.9993 203.078 86.2887C203.078 76.5781 199.269 67.7569 193.062 61.2374C186.856 67.7569 183.047 76.5781 183.047 86.2887C183.047 95.9993 186.856 104.82 193.062 111.34Z" fill="url(#paint0_linear)"/>
<path fill-rule="evenodd" clip-rule="evenodd" d="M193.062 111.34C199.269 104.82 203.078 95.9993 203.078 86.2887C203.078 76.5781 199.269 67.7569 193.062 61.2374C186.856 67.7569 183.047 76.5781 183.047 86.2887C183.047 95.9993 186.856 104.82 193.062 111.34Z" fill="url(#paint1_linear)"/>
<ellipse cx="222.144" cy="331.415" rx="38.5919" ry="38.2781" transform="rotate(-135 222.144 331.415)" fill="#314FA2"/>
<ellipse cx="182.653" cy="291.925" rx="38.5919" ry="38.2781" transform="rotate(-135 182.653 291.925)" fill="#FAA31B"/>
<path fill-rule="evenodd" clip-rule="evenodd" d="M221.351 292.718C211.804 292.953 202.328 296.713 195.042 303.998C187.757 311.283 183.997 320.759 183.762 330.307C193.31 330.072 202.786 326.312 210.071 319.026C217.356 311.741 221.116 302.265 221.351 292.718Z" fill="url(#paint2_linear)"/>
<ellipse cx="528.867" cy="292.594" rx="37.2832" ry="36.98" transform="rotate(135 528.867 292.594)" fill="#314FA2"/>
<ellipse cx="490.716" cy="330.746" rx="37.2832" ry="36.98" transform="rotate(135 490.716 330.746)" fill="#068A5B"/>
<path fill-rule="evenodd" clip-rule="evenodd" d="M491.482 293.36C491.709 302.584 495.342 311.739 502.38 318.777C509.418 325.815 518.573 329.448 527.796 329.674C527.569 320.451 523.937 311.296 516.899 304.258C509.861 297.22 500.706 293.587 491.482 293.36Z" fill="url(#paint3_linear)"/>
<path fill-rule="evenodd" clip-rule="evenodd" d="M491.482 293.36C491.709 302.584 495.342 311.739 502.38 318.777C509.418 325.815 518.573 329.448 527.796 329.674C527.569 320.451 523.937 311.296 516.899 304.258C509.861 297.22 500.706 293.587 491.482 293.36Z" fill="url(#paint4_linear)"/>
<ellipse cx="509.792" cy="59.7307" rx="36.5048" ry="36.208" transform="rotate(90 509.792 59.7307)" fill="#314FA2"/>
<ellipse cx="509.792" cy="112.559" rx="36.5048" ry="36.208" transform="rotate(90 509.792 112.559)" fill="#362C83"/>
<path fill-rule="evenodd" clip-rule="evenodd" d="M484.438 86.1446C490.981 79.9158 499.834 76.0925 509.58 76.0925C519.326 76.0925 528.179 79.9158 534.722 86.1446C528.179 92.3734 519.326 96.1967 509.58 96.1967C499.834 96.1967 490.981 92.3734 484.438 86.1446Z" fill="url(#paint5_linear)"/>
<path fill-rule="evenodd" clip-rule="evenodd" d="M484.438 86.1446C490.981 79.9158 499.834 76.0925 509.58 76.0925C519.326 76.0925 528.179 79.9158 534.722 86.1446C528.179 92.3734 519.326 96.1967 509.58 96.1967C499.834 96.1967 490.981 92.3734 484.438 86.1446Z" fill="url(#paint6_linear)"/>
<path d="M18.4142 50.8719H21.6362C25.5422 50.8719 27.8462 48.1719 27.8462 44.8419C27.8462 41.4939 25.5422 38.7939 21.6362 38.7939H18.4142V50.8719ZM20.7182 48.7119V40.9539H21.6362C23.9042 40.9539 25.3442 42.5739 25.3442 44.8419C25.3442 47.0919 23.9042 48.7119 21.6362 48.7119H20.7182ZM36.2196 47.7579C36.0216 48.1179 34.7976 49.0539 33.2676 48.7839C32.3496 48.6219 31.7196 47.9379 31.5396 47.1639L38.2716 47.1279C38.2896 47.0559 38.2896 46.9839 38.3076 46.8939C38.6496 44.4279 36.9936 42.1239 34.5276 41.6919C31.9896 41.2419 29.5956 42.9159 29.1456 45.4539C29.0376 46.0299 29.0556 46.6059 29.1636 47.1639C29.5416 49.0719 31.1436 50.5299 32.9076 50.8359C36.0036 51.3759 37.7676 49.0719 38.0016 48.6939L36.2196 47.7579ZM31.6116 45.1119C31.9896 44.1939 32.9256 43.5639 33.8796 43.6539C34.8156 43.7439 35.6436 44.4459 35.9136 45.3819H31.5216L31.6116 45.1119ZM43.5047 51.0159C45.8627 51.0159 47.1587 49.8819 47.1587 48.2799C47.1587 45.2919 41.7587 45.4179 41.7587 44.4639C41.7587 44.0139 42.3347 43.7259 43.1987 43.7259C44.7107 43.7259 45.8267 44.8239 45.8267 44.8239L47.2847 43.5099C47.2847 43.5099 45.8087 41.7279 43.2527 41.7279C40.8947 41.7279 39.6167 42.8619 39.6167 44.4639C39.6167 47.4519 44.9987 47.3259 44.9987 48.2799C44.9987 48.7299 44.4407 49.0179 43.5587 49.0179C42.0467 49.0179 40.9487 47.9199 40.9487 47.9199L39.4907 49.2339C39.4907 49.2339 40.9667 51.0159 43.5047 51.0159ZM49.8959 40.2519C50.5799 40.2519 51.1559 39.6939 51.1559 38.9919C51.1559 38.3079 50.5799 37.7499 49.8959 37.7499C49.2119 37.7499 48.6359 38.3079 48.6359 38.9919C48.6359 39.6939 49.2119 40.2519 49.8959 40.2519ZM48.7439 50.8719H51.0479V41.8719H48.7439V50.8719ZM59.7616 41.8719V42.4659C59.0416 41.9979 58.1776 41.7279 57.2596 41.7279C54.7036 41.7279 52.6156 43.8159 52.6156 46.3719C52.6156 48.9459 54.7036 51.0159 57.2596 51.0159C58.1956 51.0159 59.0596 50.7459 59.7796 50.2779C59.6896 51.2679 58.9156 52.6179 57.4396 52.6179C55.8916 52.6179 54.8476 51.4839 54.7216 51.1059L52.9036 52.0599C53.0476 52.4559 54.3076 54.6879 57.4396 54.6879C59.7076 54.6879 62.0296 52.8879 62.0836 50.1519V41.8719H59.7616ZM57.3496 48.8739C55.9816 48.8739 55.0096 47.8479 55.0096 46.3899C55.0096 44.9499 55.9816 43.9239 57.3496 43.9239C58.6996 43.9239 59.6896 44.9499 59.6896 46.3899C59.6896 47.8479 58.6996 48.8739 57.3496 48.8739ZM68.5486 41.7279C67.6486 41.7279 66.7846 42.1239 66.1366 42.7719V41.8719H63.8326V50.8719H66.1366V45.9219C66.1366 44.7159 66.9286 43.8519 68.0266 43.8519C69.1246 43.8519 69.8986 44.6979 69.8986 45.9039V50.8719H72.2566V45.8499C72.2566 43.5099 70.7626 41.7279 68.5486 41.7279Z" fill="#314FA2"/>
<path d="M31.598 71L29.24 58.922H27.206L24.56 66.104L21.932 58.922H19.898L17.54 71H19.844L21.338 63.134L23.93 71H25.172L27.782 63.134L29.294 71H31.598ZM39.7848 62V62.594C39.0648 62.126 38.2008 61.856 37.2828 61.856C34.7088 61.856 32.6388 63.944 32.6388 66.5C32.6388 69.056 34.7088 71.144 37.2828 71.144C38.2008 71.144 39.0648 70.874 39.7848 70.406V71H42.0888V62H39.7848ZM37.3548 68.984C36.0048 68.984 35.0148 67.94 35.0148 66.5C35.0148 65.06 36.0048 64.016 37.3548 64.016C38.7048 64.016 39.6948 65.06 39.6948 66.5C39.6948 67.94 38.7048 68.984 37.3548 68.984ZM48.5721 61.856C47.6721 61.856 46.7901 62.252 46.1421 62.9V62H43.8381V71H46.1421V66.05C46.1421 64.844 46.9341 63.98 48.0321 63.98C48.3381 63.98 48.7701 64.196 49.1841 64.52L49.8141 62.108C49.4361 61.946 49.0221 61.856 48.5721 61.856ZM58.2305 61.982H55.8905L53.0285 65.546V57.59H50.7245V71H53.0285V68.444L53.8025 67.472L55.9085 71H58.2305L55.1345 65.816L58.2305 61.982ZM66.3151 67.886C66.1171 68.246 64.8931 69.182 63.3631 68.912C62.4451 68.75 61.8151 68.066 61.6351 67.292L68.3671 67.256C68.3851 67.184 68.3851 67.112 68.4031 67.022C68.7451 64.556 67.0891 62.252 64.6231 61.82C62.0851 61.37 59.6911 63.044 59.2411 65.582C59.1331 66.158 59.1511 66.734 59.2591 67.292C59.6371 69.2 61.2391 70.658 63.0031 70.964C66.0991 71.504 67.8631 69.2 68.0971 68.822L66.3151 67.886ZM61.7071 65.24C62.0851 64.322 63.0211 63.692 63.9751 63.782C64.9111 63.872 65.7391 64.574 66.0091 65.51H61.6171L61.7071 65.24ZM74.6262 68.228C74.6262 68.516 74.1942 69.002 73.5822 69.002C73.0782 69.002 72.6462 68.552 72.6462 67.814V64.07H74.7702V62H72.6462V58.94L70.3422 58.994V62H69.2442V64.07H70.3422V68.516C70.3422 70.388 71.5302 71.144 73.0782 71.144C74.6442 71.144 75.6162 70.064 75.6162 70.064L74.6262 68.228ZM78.1457 60.38C78.8297 60.38 79.4057 59.822 79.4057 59.12C79.4057 58.436 78.8297 57.878 78.1457 57.878C77.4617 57.878 76.8857 58.436 76.8857 59.12C76.8857 59.822 77.4617 60.38 78.1457 60.38ZM76.9937 71H79.2977V62H76.9937V71ZM85.8514 61.856C84.9514 61.856 84.0874 62.252 83.4394 62.9V62H81.1354V71H83.4394V66.05C83.4394 64.844 84.2314 63.98 85.3294 63.98C86.4274 63.98 87.2014 64.826 87.2014 66.032V71H89.5594V65.978C89.5594 63.638 88.0654 61.856 85.8514 61.856ZM98.1146 62V62.594C97.3946 62.126 96.5306 61.856 95.6126 61.856C93.0566 61.856 90.9686 63.944 90.9686 66.5C90.9686 69.074 93.0566 71.144 95.6126 71.144C96.5486 71.144 97.4126 70.874 98.1326 70.406C98.0426 71.396 97.2686 72.746 95.7926 72.746C94.2446 72.746 93.2006 71.612 93.0746 71.234L91.2566 72.188C91.4006 72.584 92.6606 74.816 95.7926 74.816C98.0606 74.816 100.383 73.016 100.437 70.28V62H98.1146ZM95.7026 69.002C94.3346 69.002 93.3626 67.976 93.3626 66.518C93.3626 65.078 94.3346 64.052 95.7026 64.052C97.0526 64.052 98.0426 65.078 98.0426 66.518C98.0426 67.976 97.0526 69.002 95.7026 69.002Z" fill="#BE202E"/>
<path d="M18.4142 101.306H22.7702C25.7222 101.306 27.4682 99.6859 27.4682 97.7059C27.4682 96.7339 27.0182 95.8699 26.1902 95.2759C27.0182 94.6639 27.4682 93.7999 27.4682 92.8099C27.4682 90.8299 25.7222 89.2279 22.7702 89.2279H18.4142V101.306ZM20.7182 94.3579V91.3879H22.7702C24.2282 91.3879 25.1462 91.9999 25.1462 92.8639C25.1462 93.7279 24.2282 94.3579 22.7702 94.3579H20.7182ZM20.7182 99.1459V96.1939H22.7702C24.2282 96.1939 25.1462 96.8059 25.1462 97.6519C25.1462 98.5159 24.2282 99.1459 22.7702 99.1459H20.7182ZM33.7612 92.1619C32.8612 92.1619 31.9792 92.5579 31.3312 93.2059V92.3059H29.0272V101.306H31.3312V96.3559C31.3312 95.1499 32.1232 94.2859 33.2212 94.2859C33.5272 94.2859 33.9592 94.5019 34.3732 94.8259L35.0032 92.4139C34.6252 92.2519 34.2112 92.1619 33.7612 92.1619ZM42.7896 92.3059V92.8999C42.0696 92.4319 41.2056 92.1619 40.2876 92.1619C37.7136 92.1619 35.6436 94.2499 35.6436 96.8059C35.6436 99.3619 37.7136 101.45 40.2876 101.45C41.2056 101.45 42.0696 101.18 42.7896 100.712V101.306H45.0936V92.3059H42.7896ZM40.3596 99.2899C39.0096 99.2899 38.0196 98.2459 38.0196 96.8059C38.0196 95.3659 39.0096 94.3219 40.3596 94.3219C41.7096 94.3219 42.6996 95.3659 42.6996 96.8059C42.6996 98.2459 41.7096 99.2899 40.3596 99.2899ZM51.559 92.1619C50.659 92.1619 49.795 92.5579 49.147 93.2059V92.3059H46.843V101.306H49.147V96.3559C49.147 95.1499 49.939 94.2859 51.037 94.2859C52.135 94.2859 52.909 95.1319 52.909 96.3379V101.306H55.267V96.2839C55.267 93.9439 53.773 92.1619 51.559 92.1619ZM63.8222 87.8959V92.8999C63.1022 92.4319 62.2382 92.1619 61.3202 92.1619C58.7462 92.1619 56.6762 94.2499 56.6762 96.8059C56.6762 99.3619 58.7462 101.45 61.3202 101.45C62.2382 101.45 63.1022 101.18 63.8222 100.712V101.306H66.1262V87.8959H63.8222ZM61.3922 99.2899C60.0242 99.2899 59.0522 98.2459 59.0522 96.8059C59.0522 95.3659 60.0242 94.3219 61.3922 94.3219C62.7422 94.3219 63.7322 95.3659 63.7322 96.8059C63.7322 98.2459 62.7422 99.2899 61.3922 99.2899Z" fill="url(#paint7_linear)"/>
<path d="M11.4327 64.7897H8.37271V61.7117H6.33871V64.7897H3.26071V66.8057H6.33871V69.8837H8.37271V66.8057H11.4327V64.7897Z" fill="black" fill-opacity="0.5"/>
<path d="M4.03415 95.1867H10.6581V93.4947H4.03415V95.1867ZM4.03415 98.5527H10.6581V96.8607H4.03415V98.5527Z" fill="black" fill-opacity="0.5"/>
<path d="M47.1725 340.018H50.3945C54.3005 340.018 56.6045 337.318 56.6045 333.988C56.6045 330.64 54.3005 327.94 50.3945 327.94H47.1725V340.018ZM49.4765 337.858V330.1H50.3945C52.6625 330.1 54.1025 331.72 54.1025 333.988C54.1025 336.238 52.6625 337.858 50.3945 337.858H49.4765ZM64.9779 336.904C64.7799 337.264 63.5559 338.2 62.0259 337.93C61.1079 337.768 60.4779 337.084 60.2979 336.31L67.0299 336.274C67.0479 336.202 67.0479 336.13 67.0659 336.04C67.4079 333.574 65.7519 331.27 63.2859 330.838C60.7479 330.388 58.3539 332.062 57.9039 334.6C57.7959 335.176 57.8139 335.752 57.9219 336.31C58.2999 338.218 59.9019 339.676 61.6659 339.982C64.7619 340.522 66.5259 338.218 66.7599 337.84L64.9779 336.904ZM60.3699 334.258C60.7479 333.34 61.6839 332.71 62.6379 332.8C63.5739 332.89 64.4019 333.592 64.6719 334.528H60.2799L60.3699 334.258ZM72.263 340.162C74.621 340.162 75.917 339.028 75.917 337.426C75.917 334.438 70.517 334.564 70.517 333.61C70.517 333.16 71.093 332.872 71.957 332.872C73.469 332.872 74.585 333.97 74.585 333.97L76.043 332.656C76.043 332.656 74.567 330.874 72.011 330.874C69.653 330.874 68.375 332.008 68.375 333.61C68.375 336.598 73.757 336.472 73.757 337.426C73.757 337.876 73.199 338.164 72.317 338.164C70.805 338.164 69.707 337.066 69.707 337.066L68.249 338.38C68.249 338.38 69.725 340.162 72.263 340.162ZM78.6542 329.398C79.3382 329.398 79.9142 328.84 79.9142 328.138C79.9142 327.454 79.3382 326.896 78.6542 326.896C77.9702 326.896 77.3942 327.454 77.3942 328.138C77.3942 328.84 77.9702 329.398 78.6542 329.398ZM77.5022 340.018H79.8062V331.018H77.5022V340.018ZM88.5199 331.018V331.612C87.7999 331.144 86.9359 330.874 86.0179 330.874C83.4619 330.874 81.3739 332.962 81.3739 335.518C81.3739 338.092 83.4619 340.162 86.0179 340.162C86.9539 340.162 87.8179 339.892 88.5379 339.424C88.4479 340.414 87.6739 341.764 86.1979 341.764C84.6499 341.764 83.6059 340.63 83.4799 340.252L81.6619 341.206C81.8059 341.602 83.0659 343.834 86.1979 343.834C88.4659 343.834 90.7879 342.034 90.8419 339.298V331.018H88.5199ZM86.1079 338.02C84.7399 338.02 83.7679 336.994 83.7679 335.536C83.7679 334.096 84.7399 333.07 86.1079 333.07C87.4579 333.07 88.4479 334.096 88.4479 335.536C88.4479 336.994 87.4579 338.02 86.1079 338.02ZM97.3069 330.874C96.4069 330.874 95.5429 331.27 94.8949 331.918V331.018H92.5909V340.018H94.8949V335.068C94.8949 333.862 95.6869 332.998 96.7849 332.998C97.8829 332.998 98.6569 333.844 98.6569 335.05V340.018H101.015V334.996C101.015 332.656 99.5209 330.874 97.3069 330.874Z" fill="#314FA2"/>
<path d="M46.954 363H49.258V358.968H51.328C54.262 358.968 56.008 357.168 56.008 354.936C56.008 352.722 54.262 350.922 51.328 350.922H46.954V363ZM49.258 356.79V353.082H51.328C52.768 353.082 53.686 353.856 53.686 354.936C53.686 356.016 52.768 356.79 51.328 356.79H49.258ZM62.1252 353.856C61.2252 353.856 60.3432 354.252 59.6952 354.9V354H57.3912V363H59.6952V358.05C59.6952 356.844 60.4872 355.98 61.5852 355.98C61.8912 355.98 62.3232 356.196 62.7372 356.52L63.3672 354.108C62.9892 353.946 62.5752 353.856 62.1252 353.856ZM68.6516 363.144C71.2256 363.144 73.2956 361.056 73.2956 358.5C73.2956 355.944 71.2256 353.856 68.6516 353.856C66.0956 353.856 64.0076 355.944 64.0076 358.5C64.0076 361.056 66.0956 363.144 68.6516 363.144ZM68.7416 360.984C67.3736 360.984 66.4016 359.94 66.4016 358.5C66.4016 357.06 67.3736 356.016 68.7416 356.016C70.0916 356.016 71.0816 357.06 71.0816 358.5C71.0816 359.94 70.0916 360.984 68.7416 360.984ZM81.6259 354V354.594C80.9059 354.126 80.0419 353.856 79.1239 353.856C76.5679 353.856 74.4799 355.944 74.4799 358.5C74.4799 361.074 76.5679 363.144 79.1239 363.144C80.0599 363.144 80.9239 362.874 81.6439 362.406C81.5539 363.396 80.7799 364.746 79.3039 364.746C77.7559 364.746 76.7119 363.612 76.5859 363.234L74.7679 364.188C74.9119 364.584 76.1719 366.816 79.3039 366.816C81.5719 366.816 83.8939 365.016 83.9479 362.28V354H81.6259ZM79.2139 361.002C77.8459 361.002 76.8739 359.976 76.8739 358.518C76.8739 357.078 77.8459 356.052 79.2139 356.052C80.5639 356.052 81.5539 357.078 81.5539 358.518C81.5539 359.976 80.5639 361.002 79.2139 361.002ZM90.4309 353.856C89.5309 353.856 88.6489 354.252 88.0009 354.9V354H85.6969V363H88.0009V358.05C88.0009 356.844 88.7929 355.98 89.8909 355.98C90.1969 355.98 90.6289 356.196 91.0429 356.52L91.6729 354.108C91.2949 353.946 90.8809 353.856 90.4309 353.856ZM99.4593 354V354.594C98.7393 354.126 97.8753 353.856 96.9573 353.856C94.3833 353.856 92.3133 355.944 92.3133 358.5C92.3133 361.056 94.3833 363.144 96.9573 363.144C97.8753 363.144 98.7393 362.874 99.4593 362.406V363H101.763V354H99.4593ZM97.0293 360.984C95.6793 360.984 94.6893 359.94 94.6893 358.5C94.6893 357.06 95.6793 356.016 97.0293 356.016C98.3793 356.016 99.3693 357.06 99.3693 358.5C99.3693 359.94 98.3793 360.984 97.0293 360.984ZM114.367 353.856C112.891 353.856 111.793 354.432 111.145 355.314C110.497 354.414 109.489 353.856 108.247 353.856C107.347 353.856 106.465 354.252 105.817 354.9V354H103.513V363H105.817V358.05C105.817 356.844 106.609 355.98 107.707 355.98C108.805 355.98 109.597 356.826 109.597 358.032V363H111.937V358.05C111.937 356.844 112.729 355.98 113.827 355.98C114.925 355.98 115.699 356.826 115.699 358.032V363H118.057V357.978C118.057 355.638 116.563 353.856 114.367 353.856ZM130.587 353.856C129.111 353.856 128.013 354.432 127.365 355.314C126.717 354.414 125.709 353.856 124.467 353.856C123.567 353.856 122.685 354.252 122.037 354.9V354H119.733V363H122.037V358.05C122.037 356.844 122.829 355.98 123.927 355.98C125.025 355.98 125.817 356.826 125.817 358.032V363H128.157V358.05C128.157 356.844 128.949 355.98 130.047 355.98C131.145 355.98 131.919 356.826 131.919 358.032V363H134.277V357.978C134.277 355.638 132.783 353.856 130.587 353.856ZM137.213 352.38C137.897 352.38 138.473 351.822 138.473 351.12C138.473 350.436 137.897 349.878 137.213 349.878C136.529 349.878 135.953 350.436 135.953 351.12C135.953 351.822 136.529 352.38 137.213 352.38ZM136.061 363H138.365V354H136.061V363ZM144.919 353.856C144.019 353.856 143.155 354.252 142.507 354.9V354H140.203V363H142.507V358.05C142.507 356.844 143.299 355.98 144.397 355.98C145.495 355.98 146.269 356.826 146.269 358.032V363H148.627V357.978C148.627 355.638 147.133 353.856 144.919 353.856ZM157.182 354V354.594C156.462 354.126 155.598 353.856 154.68 353.856C152.124 353.856 150.036 355.944 150.036 358.5C150.036 361.074 152.124 363.144 154.68 363.144C155.616 363.144 156.48 362.874 157.2 362.406C157.11 363.396 156.336 364.746 154.86 364.746C153.312 364.746 152.268 363.612 152.142 363.234L150.324 364.188C150.468 364.584 151.728 366.816 154.86 366.816C157.128 366.816 159.45 365.016 159.504 362.28V354H157.182ZM154.77 361.002C153.402 361.002 152.43 359.976 152.43 358.518C152.43 357.078 153.402 356.052 154.77 356.052C156.12 356.052 157.11 357.078 157.11 358.518C157.11 359.976 156.12 361.002 154.77 361.002Z" fill="#FAA31B"/>
<path d="M46.954 396H49.258V391.968H51.328C54.262 391.968 56.008 390.168 56.008 387.936C56.008 385.722 54.262 383.922 51.328 383.922H46.954V396ZM49.258 389.79V386.082H51.328C52.768 386.082 53.686 386.856 53.686 387.936C53.686 389.016 52.768 389.79 51.328 389.79H49.258ZM62.1252 386.856C61.2252 386.856 60.3432 387.252 59.6952 387.9V387H57.3912V396H59.6952V391.05C59.6952 389.844 60.4872 388.98 61.5852 388.98C61.8912 388.98 62.3232 389.196 62.7372 389.52L63.3672 387.108C62.9892 386.946 62.5752 386.856 62.1252 386.856ZM68.6516 396.144C71.2256 396.144 73.2956 394.056 73.2956 391.5C73.2956 388.944 71.2256 386.856 68.6516 386.856C66.0956 386.856 64.0076 388.944 64.0076 391.5C64.0076 394.056 66.0956 396.144 68.6516 396.144ZM68.7416 393.984C67.3736 393.984 66.4016 392.94 66.4016 391.5C66.4016 390.06 67.3736 389.016 68.7416 389.016C70.0916 389.016 71.0816 390.06 71.0816 391.5C71.0816 392.94 70.0916 393.984 68.7416 393.984ZM81.6259 382.59V387.594C80.9059 387.126 80.0419 386.856 79.1239 386.856C76.5499 386.856 74.4799 388.944 74.4799 391.5C74.4799 394.056 76.5499 396.144 79.1239 396.144C80.0419 396.144 80.9059 395.874 81.6259 395.406V396H83.9299V382.59H81.6259ZM79.1959 393.984C77.8279 393.984 76.8559 392.94 76.8559 391.5C76.8559 390.06 77.8279 389.016 79.1959 389.016C80.5459 389.016 81.5359 390.06 81.5359 391.5C81.5359 392.94 80.5459 393.984 79.1959 393.984ZM91.7453 387V391.95C91.7453 393.156 90.9533 394.02 89.8553 394.02C88.7573 394.02 87.9833 393.174 87.9833 391.968V387H85.6253V392.022C85.6253 394.362 87.1193 396.144 89.3333 396.144C90.2333 396.144 91.0973 395.748 91.7453 395.1V396H94.0493V387H91.7453ZM100.157 396.144C101.885 396.144 103.397 395.208 104.189 393.786L102.119 392.778C101.633 393.516 100.895 393.984 100.157 393.984C98.8065 393.984 97.8165 392.94 97.8165 391.5C97.8165 390.06 98.8065 389.016 100.157 389.016C100.895 389.016 101.633 389.484 102.119 390.222L104.189 389.214C103.397 387.792 101.885 386.856 100.157 386.856C97.5825 386.856 95.5125 388.944 95.5125 391.5C95.5125 394.056 97.5825 396.144 100.157 396.144ZM110.302 393.228C110.302 393.516 109.87 394.002 109.258 394.002C108.754 394.002 108.322 393.552 108.322 392.814V389.07H110.446V387H108.322V383.94L106.018 383.994V387H104.92V389.07H106.018V393.516C106.018 395.388 107.206 396.144 108.754 396.144C110.32 396.144 111.292 395.064 111.292 395.064L110.302 393.228ZM116.389 396H119.611C123.517 396 125.821 393.3 125.821 389.97C125.821 386.622 123.517 383.922 119.611 383.922H116.389V396ZM118.693 393.84V386.082H119.611C121.879 386.082 123.319 387.702 123.319 389.97C123.319 392.22 121.879 393.84 119.611 393.84H118.693ZM134.194 392.886C133.996 393.246 132.772 394.182 131.242 393.912C130.324 393.75 129.694 393.066 129.514 392.292L136.246 392.256C136.264 392.184 136.264 392.112 136.282 392.022C136.624 389.556 134.968 387.252 132.502 386.82C129.964 386.37 127.57 388.044 127.12 390.582C127.012 391.158 127.03 391.734 127.138 392.292C127.516 394.2 129.118 395.658 130.882 395.964C133.978 396.504 135.742 394.2 135.976 393.822L134.194 392.886ZM129.586 390.24C129.964 389.322 130.9 388.692 131.854 388.782C132.79 388.872 133.618 389.574 133.888 390.51H129.496L129.586 390.24ZM141.479 396.144C143.837 396.144 145.133 395.01 145.133 393.408C145.133 390.42 139.733 390.546 139.733 389.592C139.733 389.142 140.309 388.854 141.173 388.854C142.685 388.854 143.801 389.952 143.801 389.952L145.259 388.638C145.259 388.638 143.783 386.856 141.227 386.856C138.869 386.856 137.591 387.99 137.591 389.592C137.591 392.58 142.973 392.454 142.973 393.408C142.973 393.858 142.415 394.146 141.533 394.146C140.021 394.146 138.923 393.048 138.923 393.048L137.465 394.362C137.465 394.362 138.941 396.144 141.479 396.144ZM147.871 385.38C148.555 385.38 149.131 384.822 149.131 384.12C149.131 383.436 148.555 382.878 147.871 382.878C147.187 382.878 146.611 383.436 146.611 384.12C146.611 384.822 147.187 385.38 147.871 385.38ZM146.719 396H149.023V387H146.719V396ZM157.736 387V387.594C157.016 387.126 156.152 386.856 155.234 386.856C152.678 386.856 150.59 388.944 150.59 391.5C150.59 394.074 152.678 396.144 155.234 396.144C156.17 396.144 157.034 395.874 157.754 395.406C157.664 396.396 156.89 397.746 155.414 397.746C153.866 397.746 152.822 396.612 152.696 396.234L150.878 397.188C151.022 397.584 152.282 399.816 155.414 399.816C157.682 399.816 160.004 398.016 160.058 395.28V387H157.736ZM155.324 394.002C153.956 394.002 152.984 392.976 152.984 391.518C152.984 390.078 153.956 389.052 155.324 389.052C156.674 389.052 157.664 390.078 157.664 391.518C157.664 392.976 156.674 394.002 155.324 394.002ZM166.523 386.856C165.623 386.856 164.759 387.252 164.111 387.9V387H161.807V396H164.111V391.05C164.111 389.844 164.903 388.98 166.001 388.98C167.099 388.98 167.873 389.826 167.873 391.032V396H170.231V390.978C170.231 388.638 168.737 386.856 166.523 386.856Z" fill="url(#paint8_linear)"/>
<path d="M40.191 356.936H37.131V353.858H35.097V356.936H32.019V358.952H35.097V362.03H37.131V358.952H40.191V356.936Z" fill="black" fill-opacity="0.5"/>
<path d="M32.7924 389.333H39.4165V387.641H32.7924V389.333ZM32.7924 392.699H39.4165V391.007H32.7924V392.699Z" fill="black" fill-opacity="0.5"/>
<path d="M564.597 352.37H567.819C571.725 352.37 574.029 349.67 574.029 346.34C574.029 342.992 571.725 340.292 567.819 340.292H564.597V352.37ZM566.901 350.21V342.452H567.819C570.087 342.452 571.527 344.072 571.527 346.34C571.527 348.59 570.087 350.21 567.819 350.21H566.901ZM582.403 349.256C582.205 349.616 580.981 350.552 579.451 350.282C578.533 350.12 577.903 349.436 577.723 348.662L584.455 348.626C584.473 348.554 584.473 348.482 584.491 348.392C584.833 345.926 583.177 343.622 580.711 343.19C578.173 342.74 575.779 344.414 575.329 346.952C575.221 347.528 575.239 348.104 575.347 348.662C575.725 350.57 577.327 352.028 579.091 352.334C582.187 352.874 583.951 350.57 584.185 350.192L582.403 349.256ZM577.795 346.61C578.173 345.692 579.109 345.062 580.063 345.152C580.999 345.242 581.827 345.944 582.097 346.88H577.705L577.795 346.61ZM589.688 352.514C592.046 352.514 593.342 351.38 593.342 349.778C593.342 346.79 587.942 346.916 587.942 345.962C587.942 345.512 588.518 345.224 589.382 345.224C590.894 345.224 592.01 346.322 592.01 346.322L593.468 345.008C593.468 345.008 591.992 343.226 589.436 343.226C587.078 343.226 585.8 344.36 585.8 345.962C585.8 348.95 591.182 348.824 591.182 349.778C591.182 350.228 590.624 350.516 589.742 350.516C588.23 350.516 587.132 349.418 587.132 349.418L585.674 350.732C585.674 350.732 587.15 352.514 589.688 352.514ZM596.079 341.75C596.763 341.75 597.339 341.192 597.339 340.49C597.339 339.806 596.763 339.248 596.079 339.248C595.395 339.248 594.819 339.806 594.819 340.49C594.819 341.192 595.395 341.75 596.079 341.75ZM594.927 352.37H597.231V343.37H594.927V352.37ZM605.945 343.37V343.964C605.225 343.496 604.361 343.226 603.443 343.226C600.887 343.226 598.799 345.314 598.799 347.87C598.799 350.444 600.887 352.514 603.443 352.514C604.379 352.514 605.243 352.244 605.963 351.776C605.873 352.766 605.099 354.116 603.623 354.116C602.075 354.116 601.031 352.982 600.905 352.604L599.087 353.558C599.231 353.954 600.491 356.186 603.623 356.186C605.891 356.186 608.213 354.386 608.267 351.65V343.37H605.945ZM603.533 350.372C602.165 350.372 601.193 349.346 601.193 347.888C601.193 346.448 602.165 345.422 603.533 345.422C604.883 345.422 605.873 346.448 605.873 347.888C605.873 349.346 604.883 350.372 603.533 350.372ZM614.732 343.226C613.832 343.226 612.968 343.622 612.32 344.27V343.37H610.016V352.37H612.32V347.42C612.32 346.214 613.112 345.35 614.21 345.35C615.308 345.35 616.082 346.196 616.082 347.402V352.37H618.44V347.348C618.44 345.008 616.946 343.226 614.732 343.226Z" fill="#314FA2"/>
<path d="M568.701 372.731C570.915 372.731 572.769 371.309 572.769 369.329C572.769 365.891 566.865 365.585 566.865 363.749C566.865 363.011 567.567 362.525 568.647 362.525C570.051 362.525 571.293 363.893 571.437 364.037L573.003 362.489C572.823 362.291 570.915 360.365 568.665 360.365C566.451 360.383 564.615 361.787 564.615 363.785C564.615 367.205 570.501 367.529 570.501 369.347C570.501 370.085 569.799 370.571 568.719 370.571C567.297 370.571 566.055 369.185 565.947 369.059L564.381 370.607C564.543 370.805 566.469 372.731 568.701 372.731ZM581.366 363.587V364.181C580.646 363.713 579.782 363.443 578.864 363.443C576.29 363.443 574.22 365.531 574.22 368.087C574.22 370.643 576.29 372.731 578.864 372.731C579.782 372.731 580.646 372.461 581.366 371.993V372.587H583.67V363.587H581.366ZM578.936 370.571C577.586 370.571 576.596 369.527 576.596 368.087C576.596 366.647 577.586 365.603 578.936 365.603C580.286 365.603 581.276 366.647 581.276 368.087C581.276 369.527 580.286 370.571 578.936 370.571ZM585.419 372.587H587.723V359.177H585.419V372.587ZM596.351 369.473C596.153 369.833 594.929 370.769 593.399 370.499C592.481 370.337 591.851 369.653 591.671 368.879L598.403 368.843C598.421 368.771 598.421 368.699 598.439 368.609C598.781 366.143 597.125 363.839 594.659 363.407C592.121 362.957 589.727 364.631 589.277 367.169C589.169 367.745 589.187 368.321 589.295 368.879C589.673 370.787 591.275 372.245 593.039 372.551C596.135 373.091 597.899 370.787 598.133 370.409L596.351 369.473ZM591.743 366.827C592.121 365.909 593.057 365.279 594.011 365.369C594.947 365.459 595.775 366.161 596.045 367.097H591.653L591.743 366.827ZM603.636 372.731C605.994 372.731 607.29 371.597 607.29 369.995C607.29 367.007 601.89 367.133 601.89 366.179C601.89 365.729 602.466 365.441 603.33 365.441C604.842 365.441 605.958 366.539 605.958 366.539L607.416 365.225C607.416 365.225 605.94 363.443 603.384 363.443C601.026 363.443 599.748 364.577 599.748 366.179C599.748 369.167 605.13 369.041 605.13 369.995C605.13 370.445 604.572 370.733 603.69 370.733C602.178 370.733 601.08 369.635 601.08 369.635L599.622 370.949C599.622 370.949 601.098 372.731 603.636 372.731Z" fill="#068A5B"/>
<path d="M570.339 402.948C572.643 402.948 574.353 401.904 575.343 400.302L573.255 398.988C572.643 400.068 571.545 400.788 570.339 400.788C568.233 400.788 566.865 399.114 566.865 396.774C566.865 394.416 568.233 392.742 570.339 392.742C571.527 392.742 572.625 393.462 573.255 394.56L575.343 393.228C574.353 391.626 572.643 390.582 570.339 390.582C566.595 390.582 564.363 393.354 564.363 396.774C564.363 400.176 566.595 402.948 570.339 402.948ZM581.219 402.948C583.793 402.948 585.863 400.86 585.863 398.304C585.863 395.748 583.793 393.66 581.219 393.66C578.663 393.66 576.575 395.748 576.575 398.304C576.575 400.86 578.663 402.948 581.219 402.948ZM581.309 400.788C579.941 400.788 578.969 399.744 578.969 398.304C578.969 396.864 579.941 395.82 581.309 395.82C582.659 395.82 583.649 396.864 583.649 398.304C583.649 399.744 582.659 400.788 581.309 400.788ZM587.317 402.804H589.621V389.394H587.317V402.804ZM591.374 402.804H593.678V389.394H591.374V402.804ZM602.306 393.804V394.398C601.586 393.93 600.722 393.66 599.804 393.66C597.23 393.66 595.16 395.748 595.16 398.304C595.16 400.86 597.23 402.948 599.804 402.948C600.722 402.948 601.586 402.678 602.306 402.21V402.804H604.61V393.804H602.306ZM599.876 400.788C598.526 400.788 597.536 399.744 597.536 398.304C597.536 396.864 598.526 395.82 599.876 395.82C601.226 395.82 602.216 396.864 602.216 398.304C602.216 399.744 601.226 400.788 599.876 400.788ZM611.021 400.032C611.021 400.32 610.589 400.806 609.977 400.806C609.473 400.806 609.041 400.356 609.041 399.618V395.874H611.165V393.804H609.041V390.744L606.737 390.798V393.804H605.639V395.874H606.737V400.32C606.737 402.192 607.925 402.948 609.473 402.948C611.039 402.948 612.011 401.868 612.011 401.868L611.021 400.032ZM620.157 399.69C619.959 400.05 618.735 400.986 617.205 400.716C616.287 400.554 615.657 399.87 615.477 399.096L622.209 399.06C622.227 398.988 622.227 398.916 622.245 398.826C622.587 396.36 620.931 394.056 618.465 393.624C615.927 393.174 613.533 394.848 613.083 397.386C612.975 397.962 612.993 398.538 613.101 399.096C613.479 401.004 615.081 402.462 616.845 402.768C619.941 403.308 621.705 401.004 621.939 400.626L620.157 399.69ZM615.549 397.044C615.927 396.126 616.863 395.496 617.817 395.586C618.753 395.676 619.581 396.378 619.851 397.314H615.459L615.549 397.044ZM628.54 393.66C627.64 393.66 626.758 394.056 626.11 394.704V393.804H623.806V402.804H626.11V397.854C626.11 396.648 626.902 395.784 628 395.784C628.306 395.784 628.738 396 629.152 396.324L629.782 393.912C629.404 393.75 628.99 393.66 628.54 393.66ZM637.568 393.804V394.398C636.848 393.93 635.984 393.66 635.066 393.66C632.492 393.66 630.422 395.748 630.422 398.304C630.422 400.86 632.492 402.948 635.066 402.948C635.984 402.948 636.848 402.678 637.568 402.21V402.804H639.872V393.804H637.568ZM635.138 400.788C633.788 400.788 632.798 399.744 632.798 398.304C632.798 396.864 633.788 395.82 635.138 395.82C636.488 395.82 637.478 396.864 637.478 398.304C637.478 399.744 636.488 400.788 635.138 400.788ZM641.622 402.804H643.926V389.394H641.622V402.804Z" fill="url(#paint9_radial)"/>
<path d="M557.616 366.288H554.556V363.21H552.522V366.288H549.444V368.304H552.522V371.382H554.556V368.304H557.616V366.288Z" fill="black" fill-opacity="0.5"/>
<path d="M550.217 396.685H556.841V394.993H550.217V396.685ZM550.217 400.051H556.841V398.359H550.217V400.051Z" fill="black" fill-opacity="0.5"/>
<path d="M588.414 18H591.636C595.542 18 597.846 15.3 597.846 11.97C597.846 8.622 595.542 5.922 591.636 5.922H588.414V18ZM590.718 15.84V8.082H591.636C593.904 8.082 595.344 9.702 595.344 11.97C595.344 14.22 593.904 15.84 591.636 15.84H590.718ZM606.22 14.886C606.022 15.246 604.798 16.182 603.268 15.912C602.35 15.75 601.72 15.066 601.54 14.292L608.272 14.256C608.29 14.184 608.29 14.112 608.308 14.022C608.65 11.556 606.994 9.252 604.528 8.82C601.99 8.37 599.596 10.044 599.146 12.582C599.038 13.158 599.056 13.734 599.164 14.292C599.542 16.2 601.144 17.658 602.908 17.964C606.004 18.504 607.768 16.2 608.002 15.822L606.22 14.886ZM601.612 12.24C601.99 11.322 602.926 10.692 603.88 10.782C604.816 10.872 605.644 11.574 605.914 12.51H601.522L601.612 12.24ZM613.505 18.144C615.863 18.144 617.159 17.01 617.159 15.408C617.159 12.42 611.759 12.546 611.759 11.592C611.759 11.142 612.335 10.854 613.199 10.854C614.711 10.854 615.827 11.952 615.827 11.952L617.285 10.638C617.285 10.638 615.809 8.856 613.253 8.856C610.895 8.856 609.617 9.99 609.617 11.592C609.617 14.58 614.999 14.454 614.999 15.408C614.999 15.858 614.441 16.146 613.559 16.146C612.047 16.146 610.949 15.048 610.949 15.048L609.491 16.362C609.491 16.362 610.967 18.144 613.505 18.144ZM619.896 7.38C620.58 7.38 621.156 6.822 621.156 6.12C621.156 5.436 620.58 4.878 619.896 4.878C619.212 4.878 618.636 5.436 618.636 6.12C618.636 6.822 619.212 7.38 619.896 7.38ZM618.744 18H621.048V9H618.744V18ZM629.762 9V9.594C629.042 9.126 628.178 8.856 627.26 8.856C624.704 8.856 622.616 10.944 622.616 13.5C622.616 16.074 624.704 18.144 627.26 18.144C628.196 18.144 629.06 17.874 629.78 17.406C629.69 18.396 628.916 19.746 627.44 19.746C625.892 19.746 624.848 18.612 624.722 18.234L622.904 19.188C623.048 19.584 624.308 21.816 627.44 21.816C629.708 21.816 632.03 20.016 632.084 17.28V9H629.762ZM627.35 16.002C625.982 16.002 625.01 14.976 625.01 13.518C625.01 12.078 625.982 11.052 627.35 11.052C628.7 11.052 629.69 12.078 629.69 13.518C629.69 14.976 628.7 16.002 627.35 16.002ZM638.549 8.856C637.649 8.856 636.785 9.252 636.137 9.9V9H633.833V18H636.137V13.05C636.137 11.844 636.929 10.98 638.027 10.98C639.125 10.98 639.899 11.826 639.899 13.032V18H642.257V12.978C642.257 10.638 640.763 8.856 638.549 8.856Z" fill="#314FA2"/>
<path d="M597.126 28.4429V26.1389H588.414V38.2169H597.126V35.9129H590.718V33.3029H594.246V30.9989H590.718V28.4429H597.126ZM604.539 29.2169L602.577 34.8869L600.615 29.2169H598.311L601.425 38.2169H603.729L606.843 29.2169H604.539ZM614.899 35.1029C614.701 35.4629 613.477 36.3989 611.947 36.1289C611.029 35.9669 610.399 35.2829 610.219 34.5089L616.951 34.4729C616.969 34.4009 616.969 34.3289 616.987 34.2389C617.329 31.7729 615.673 29.4689 613.207 29.0369C610.669 28.5869 608.275 30.2609 607.825 32.7989C607.717 33.3749 607.735 33.9509 607.843 34.5089C608.221 36.4169 609.823 37.8749 611.587 38.1809C614.683 38.7209 616.447 36.4169 616.681 36.0389L614.899 35.1029ZM610.291 32.4569C610.669 31.5389 611.605 30.9089 612.559 30.9989C613.495 31.0889 614.323 31.7909 614.593 32.7269H610.201L610.291 32.4569ZM623.282 29.0729C622.382 29.0729 621.5 29.4689 620.852 30.1169V29.2169H618.548V38.2169H620.852V33.2669C620.852 32.0609 621.644 31.1969 622.742 31.1969C623.048 31.1969 623.48 31.4129 623.894 31.7369L624.524 29.3249C624.146 29.1629 623.732 29.0729 623.282 29.0729ZM631.122 29.2169L629.214 34.3109L627.198 29.2169H624.894L628.08 37.2989L626.442 41.6549H628.746L633.426 29.2169H631.122ZM638.98 38.3609C641.554 38.3609 643.624 36.2729 643.624 33.7169C643.624 31.1609 641.554 29.0729 638.98 29.0729C636.424 29.0729 634.336 31.1609 634.336 33.7169C634.336 36.2729 636.424 38.3609 638.98 38.3609ZM639.07 36.2009C637.702 36.2009 636.73 35.1569 636.73 33.7169C636.73 32.2769 637.702 31.2329 639.07 31.2329C640.42 31.2329 641.41 32.2769 641.41 33.7169C641.41 35.1569 640.42 36.2009 639.07 36.2009ZM649.794 29.0729C648.894 29.0729 648.03 29.4689 647.382 30.1169V29.2169H645.078V38.2169H647.382V33.2669C647.382 32.0609 648.174 31.1969 649.272 31.1969C650.37 31.1969 651.144 32.0429 651.144 33.2489V38.2169H653.502V33.1949C653.502 30.8549 652.008 29.0729 649.794 29.0729ZM662.058 35.1029C661.86 35.4629 660.636 36.3989 659.106 36.1289C658.188 35.9669 657.558 35.2829 657.378 34.5089L664.11 34.4729C664.128 34.4009 664.128 34.3289 664.146 34.2389C664.488 31.7729 662.832 29.4689 660.366 29.0369C657.828 28.5869 655.434 30.2609 654.984 32.7989C654.876 33.3749 654.894 33.9509 655.002 34.5089C655.38 36.4169 656.982 37.8749 658.746 38.1809C661.842 38.7209 663.606 36.4169 663.84 36.0389L662.058 35.1029ZM657.45 32.4569C657.828 31.5389 658.764 30.9089 659.718 30.9989C660.654 31.0889 661.482 31.7909 661.752 32.7269H657.36L657.45 32.4569Z" fill="#362C83"/>
<path d="M602.634 56.356L600.168 64.69L597.558 56.356H595.452L592.86 64.69L590.376 56.356H588L591.672 68.434H594.03L596.514 59.956L598.98 68.434H601.356L605.01 56.356H602.634ZM610.679 68.578C613.253 68.578 615.323 66.49 615.323 63.934C615.323 61.378 613.253 59.29 610.679 59.29C608.123 59.29 606.035 61.378 606.035 63.934C606.035 66.49 608.123 68.578 610.679 68.578ZM610.769 66.418C609.401 66.418 608.429 65.374 608.429 63.934C608.429 62.494 609.401 61.45 610.769 61.45C612.119 61.45 613.109 62.494 613.109 63.934C613.109 65.374 612.119 66.418 610.769 66.418ZM621.511 59.29C620.611 59.29 619.729 59.686 619.081 60.334V59.434H616.777V68.434H619.081V63.484C619.081 62.278 619.873 61.414 620.971 61.414C621.277 61.414 621.709 61.63 622.123 61.954L622.753 59.542C622.375 59.38 621.961 59.29 621.511 59.29ZM631.169 59.416H628.829L625.967 62.98V55.024H623.663V68.434H625.967V65.878L626.741 64.906L628.847 68.434H631.169L628.073 63.25L631.169 59.416ZM636.806 59.38H635.294V57.526C635.294 57.004 635.456 56.86 635.762 56.86C635.996 56.86 636.284 56.95 636.284 56.95L636.752 55.204C636.752 55.204 635.978 54.898 634.88 54.898C633.71 54.898 632.99 55.888 632.99 56.842V59.38H631.928V61.144H632.99V68.434H635.294V61.144H636.806V59.38ZM638.174 68.434H640.478V55.024H638.174V68.434ZM646.605 68.578C649.179 68.578 651.249 66.49 651.249 63.934C651.249 61.378 649.179 59.29 646.605 59.29C644.049 59.29 641.961 61.378 641.961 63.934C641.961 66.49 644.049 68.578 646.605 68.578ZM646.695 66.418C645.327 66.418 644.355 65.374 644.355 63.934C644.355 62.494 645.327 61.45 646.695 61.45C648.045 61.45 649.035 62.494 649.035 63.934C649.035 65.374 648.045 66.418 646.695 66.418ZM664.331 59.434L662.369 65.104L660.407 59.434H658.391L656.429 65.104L654.467 59.434H652.163L655.277 68.434H657.581L659.399 62.638L661.217 68.434H663.521L666.635 59.434H664.331ZM671.452 68.578C673.81 68.578 675.106 67.444 675.106 65.842C675.106 62.854 669.706 62.98 669.706 62.026C669.706 61.576 670.282 61.288 671.146 61.288C672.658 61.288 673.774 62.386 673.774 62.386L675.232 61.072C675.232 61.072 673.756 59.29 671.2 59.29C668.842 59.29 667.564 60.424 667.564 62.026C667.564 65.014 672.946 64.888 672.946 65.842C672.946 66.292 672.388 66.58 671.506 66.58C669.994 66.58 668.896 65.482 668.896 65.482L667.438 66.796C667.438 66.796 668.914 68.578 671.452 68.578Z" fill="url(#paint10_radial)"/>
<path d="M581.433 31.9178H578.373V28.8398H576.339V31.9178H573.261V33.9338H576.339V37.0118H578.373V33.9338H581.433V31.9178Z" fill="black" fill-opacity="0.5"/>
<path d="M574.034 62.3148H580.658V60.6228H574.034V62.3148ZM574.034 65.6808H580.658V63.9888H574.034V65.6808Z" fill="black" fill-opacity="0.5"/>
<path d="M165.707 160.293C165.317 159.902 164.683 159.902 164.293 160.293L157.929 166.657C157.538 167.047 157.538 167.68 157.929 168.071C158.319 168.462 158.953 168.462 159.343 168.071L165 162.414L170.657 168.071C171.047 168.462 171.681 168.462 172.071 168.071C172.462 167.68 172.462 167.047 172.071 166.657L165.707 160.293ZM166 204.191L166 161L164 161L164 204.191L166 204.191Z" fill="black"/>
<path d="M333.792 298.553C333.402 298.944 333.402 299.577 333.792 299.967L340.156 306.331C340.547 306.722 341.18 306.722 341.57 306.331C341.961 305.941 341.961 305.308 341.57 304.917L335.914 299.26L341.57 293.603C341.961 293.213 341.961 292.58 341.57 292.189C341.18 291.799 340.547 291.799 340.156 292.189L333.792 298.553ZM377.69 298.26L334.499 298.26L334.499 300.26L377.69 300.26L377.69 298.26Z" fill="black"/>
<defs>
<linearGradient id="paint0_linear" x1="193.062" y1="61.2374" x2="193.062" y2="111.34" gradientUnits="userSpaceOnUse">
<stop stop-color="#3F3894"/>
<stop offset="1" stop-color="#3F3894" stop-opacity="0"/>
</linearGradient>
<linearGradient id="paint1_linear" x1="193.062" y1="61.2374" x2="193.062" y2="111.34" gradientUnits="userSpaceOnUse">
<stop stop-color="#3F3894"/>
<stop offset="1" stop-color="#3F3894" stop-opacity="0"/>
</linearGradient>
<linearGradient id="paint2_linear" x1="183.762" y1="330.307" x2="221.351" y2="292.718" gradientUnits="userSpaceOnUse">
<stop stop-color="#3F3894"/>
<stop offset="1" stop-color="#3F3894" stop-opacity="0"/>
</linearGradient>
<linearGradient id="paint3_linear" x1="527.796" y1="329.674" x2="491.482" y2="293.36" gradientUnits="userSpaceOnUse">
<stop stop-color="#3F3894"/>
<stop offset="1" stop-color="#3F3894" stop-opacity="0"/>
</linearGradient>
<linearGradient id="paint4_linear" x1="527.796" y1="329.674" x2="491.482" y2="293.36" gradientUnits="userSpaceOnUse">
<stop stop-color="#3F3894"/>
<stop offset="1" stop-color="#3F3894" stop-opacity="0"/>
</linearGradient>
<linearGradient id="paint5_linear" x1="534.722" y1="86.1446" x2="484.438" y2="86.1446" gradientUnits="userSpaceOnUse">
<stop stop-color="#3F3894"/>
<stop offset="1" stop-color="#3F3894" stop-opacity="0"/>
</linearGradient>
<linearGradient id="paint6_linear" x1="534.722" y1="86.1446" x2="484.438" y2="86.1446" gradientUnits="userSpaceOnUse">
<stop stop-color="#345BA9"/>
<stop offset="1" stop-color="#3F3894" stop-opacity="0"/>
</linearGradient>
<linearGradient id="paint7_linear" x1="70" y1="96.5" x2="19.5" y2="96" gradientUnits="userSpaceOnUse">
<stop offset="0.159714" stop-color="#1649A0"/>
<stop offset="1" stop-color="#BE202E"/>
</linearGradient>
<linearGradient id="paint8_linear" x1="201.167" y1="388.5" x2="40.75" y2="388.5" gradientUnits="userSpaceOnUse">
<stop offset="0.423453" stop-color="#1649A0"/>
<stop offset="0.807903" stop-color="#FAA31B"/>
</linearGradient>
<radialGradient id="paint9_radial" cx="0" cy="0" r="1" gradientUnits="userSpaceOnUse" gradientTransform="translate(580.184 410.075) rotate(1.27303) scale(41.3631 58.6819)">
<stop offset="0.269989" stop-color="#1649A0"/>
<stop offset="1" stop-color="#0F6745"/>
</radialGradient>
<radialGradient id="paint10_radial" cx="0" cy="0" r="1" gradientUnits="userSpaceOnUse" gradientTransform="translate(661.749 71.1294) rotate(-179.664) scale(81.6414 467.582)">
<stop stop-color="#2D6CD8"/>
<stop offset="0.739357" stop-color="#2C217D"/>
</radialGradient>
</defs>
</svg>
