<svg width="92" height="82" viewBox="0 0 92 82" fill="none" xmlns="http://www.w3.org/2000/svg">
<path d="M20.2559 80.42C14.7414 76.3464 10.2383 71.0663 7.09311 64.986C3.84319 58.6926 2.15281 51.7151 2.16338 44.6372C2.1627 41.6238 2.4668 38.6181 3.07106 35.6655C4.24147 29.9719 6.52533 24.5637 9.79231 19.7494C14.6404 12.5921 21.4674 6.98951 29.446 3.62048C32.1483 2.48167 34.9571 1.61233 37.8313 1.02517C43.772 -0.180712 49.8957 -0.180712 55.8364 1.02517C61.5497 2.19154 66.9766 4.46751 71.8075 7.72324C78.9895 12.5547 84.6113 19.3581 87.9919 27.3091C89.1342 30.0021 90.0061 32.8012 90.5949 35.6655C91.9185 42.1382 91.793 48.8221 90.2274 55.241C88.584 61.9286 85.4017 68.1434 80.9324 73.394C78.732 75.9819 76.2441 78.3125 73.5163 80.3412L67.6249 72.502C71.9089 69.323 75.4058 65.2089 77.8477 60.4749C79.0846 58.0738 80.0347 55.5364 80.6786 52.9148C82.1807 46.8145 81.9942 40.4225 80.1391 34.4194C78.284 28.4164 74.8297 23.0272 70.1442 18.8259C65.4587 14.6245 59.7174 11.7684 53.5318 10.5616C47.3463 9.35488 40.9481 9.84272 35.0187 11.9732C29.0894 14.1037 23.8509 17.797 19.8613 22.6597C15.8717 27.5225 13.2803 33.3727 12.3632 39.5871C11.4461 45.8015 12.2376 52.1474 14.6534 57.949C17.0692 63.7505 21.0188 68.7905 26.0816 72.532L20.2559 80.4196V80.42Z" fill="#E4EAF0"/>
<path d="M21.5664 81.4504C18.4677 79.3902 15.6113 76.9892 13.0511 74.2927C10.5406 71.6482 8.3541 68.7158 6.53766 65.5572C4.73163 62.4127 3.3327 59.0527 2.3743 55.5576C0.60962 49.0784 0.435816 42.2711 1.86757 35.7109C2.49495 32.8537 3.41788 30.0691 4.62155 27.4016C5.8243 24.7417 7.28731 22.2065 8.98936 19.8328C10.7097 17.4362 12.6516 15.2056 14.7896 13.1701L22.9382 20.1023C21.2737 21.6897 19.762 23.4289 18.4228 25.2971C17.0974 27.1476 15.9581 29.1238 15.0216 31.1969C14.0841 33.2765 13.3653 35.4473 12.8768 37.6746C11.7622 42.7866 11.8976 48.0908 13.2715 53.1398C14.0177 55.8641 15.1072 58.4833 16.5138 60.9349C17.9283 63.3971 19.6311 65.6833 21.5865 67.7455C23.5803 69.8483 25.805 71.7211 28.2187 73.3286L21.5664 81.4504Z" fill="#1649A0"/>
<path d="M44.9975 72.0292C60.4124 72.5657 73.348 60.5445 73.8899 45.1792C74.4318 29.8138 62.3749 16.9229 46.96 16.3864C31.5451 15.8499 18.6095 27.8711 18.0676 43.2364C17.5257 58.6018 29.5826 71.4927 44.9975 72.0292Z" stroke="#707070" stroke-width="4" stroke-miterlimit="10" stroke-dasharray="1 19"/>
<path d="M8.0166 6.78705L44.4897 43.7919C44.4897 43.7919 45.8652 44.7797 46.8331 43.7919C47.801 42.804 46.8331 41.4199 46.8331 41.4199L8.0166 6.78705Z" fill="#414D55"/>
</svg>
