<svg enable-background="new 0 0 32 32" height="512" viewBox="0 0 32 32" width="512" xmlns="http://www.w3.org/2000/svg"><g id="_x32_3_groups"><g><g><path d="m16 15c-2.757 0-5-2.243-5-5s2.243-5 5-5 5 2.243 5 5-2.243 5-5 5zm0-8c-1.654 0-3 1.346-3 3s1.346 3 3 3 3-1.346 3-3-1.346-3-3-3z"/></g><g><path d="m24 27h-16c-.552 0-1-.447-1-1v-6c0-1.654 1.346-3 3-3h12c1.654 0 3 1.346 3 3v6c0 .553-.447 1-1 1zm-15-2h14v-5c0-.552-.448-1-1-1h-12c-.551 0-1 .448-1 1z"/></g><g><path d="m7 16c-2.206 0-4-1.794-4-4s1.794-4 4-4 4 1.794 4 4-1.794 4-4 4zm0-6c-1.103 0-2 .897-2 2s.897 2 2 2 2-.897 2-2-.897-2-2-2z"/></g><g><path d="m5 26h-3c-.552 0-1-.447-1-1v-4c0-1.654 1.346-3 3-3h1.1c.552 0 1 .447 1 1s-.448 1-1 1h-1.1c-.551 0-1 .448-1 1v3h2c.552 0 1 .447 1 1s-.448 1-1 1z"/></g><g><path d="m25 16c-2.206 0-4-1.794-4-4s1.794-4 4-4 4 1.794 4 4-1.794 4-4 4zm0-6c-1.103 0-2 .897-2 2s.897 2 2 2 2-.897 2-2-.897-2-2-2z"/></g><g><path d="m30 26h-3c-.553 0-1-.447-1-1s.447-1 1-1h2v-3c0-.552-.448-1-1-1h-1.1c-.553 0-1-.447-1-1s.447-1 1-1h1.1c1.654 0 3 1.346 3 3v4c0 .553-.447 1-1 1z"/></g></g></g></svg>