<svg width="39" height="44" viewBox="0 0 39 44" fill="none" xmlns="http://www.w3.org/2000/svg">
<path d="M6.28298 21.7874C6.25039 21.5183 6.13688 21.2655 5.95747 21.0623C5.77806 20.8591 5.5412 20.7151 5.27821 20.6495C5.01521 20.5838 4.73849 20.5996 4.48463 20.6946C4.23076 20.7896 4.01173 20.9594 3.85648 21.1816C3.74873 21.3239 3.67051 21.4863 3.62643 21.6593C3.58235 21.8322 3.5733 22.0122 3.59981 22.1887C3.62631 22.3652 3.68784 22.5346 3.78078 22.687C3.87371 22.8394 3.99618 22.9716 4.14097 23.076C4.37179 23.2491 4.65235 23.343 4.94088 23.3437C5.00884 23.3487 5.07707 23.3487 5.14504 23.3437C5.32169 23.3193 5.49168 23.2597 5.64501 23.1687C5.79835 23.0776 5.93194 22.9568 6.03795 22.8134C6.14395 22.67 6.22023 22.5068 6.26231 22.3335C6.30439 22.1602 6.31142 21.9802 6.28298 21.8042V21.7874ZM5.49646 22.3966C5.44347 22.469 5.37646 22.53 5.29941 22.576C5.22237 22.622 5.13686 22.652 5.04798 22.6643C4.95846 22.6789 4.86691 22.6752 4.77888 22.6533C4.69085 22.6314 4.60819 22.5919 4.5359 22.5371C4.46349 22.4841 4.40247 22.4171 4.35648 22.3401C4.31048 22.263 4.28044 22.1775 4.26815 22.0887C4.25402 21.9997 4.258 21.9087 4.27985 21.8213C4.30171 21.7339 4.34098 21.6518 4.39533 21.5799C4.50307 21.4338 4.66434 21.3363 4.84382 21.3088H4.94757C5.09332 21.3095 5.2351 21.3564 5.35254 21.4427C5.49808 21.5525 5.59528 21.7145 5.62364 21.8945C5.6481 22.072 5.60248 22.2521 5.49646 22.3966Z" fill="#203858"/>
<path d="M12.9802 15.271L20.7516 11.9241L34.6044 5.96334C34.6452 5.94619 34.6822 5.92111 34.7133 5.88955C34.7443 5.85799 34.7688 5.82058 34.7853 5.77949C34.8018 5.7384 34.81 5.69444 34.8094 5.65016C34.8088 5.60589 34.7994 5.56217 34.7818 5.52155L33.3961 2.30185C33.2744 2.0192 33.0982 1.7633 32.8776 1.54876C32.657 1.33422 32.3963 1.16525 32.1103 1.0515C31.8244 0.937743 31.5189 0.881437 31.2111 0.885794C30.9034 0.890151 30.5996 0.955086 30.317 1.07689L19.8613 5.5751L12.0899 8.92199L4.31507 12.2689L1.50369 13.4771C1.22105 13.5988 0.965144 13.775 0.750605 13.9956C0.536067 14.2162 0.367094 14.477 0.25334 14.7629C0.139587 15.0488 0.0832801 15.3544 0.0876372 15.6621C0.0919943 15.9698 0.15693 16.2736 0.278734 16.5562L1.64761 19.7358L2.15968 23.163C2.2401 23.7201 2.51841 24.2296 2.9437 24.5984C3.36899 24.9671 3.91283 25.1704 4.47573 25.1711C4.58783 25.1713 4.69977 25.1624 4.81041 25.1443L35.8327 20.5122C36.1384 20.4669 36.4321 20.3615 36.6969 20.2022C36.9617 20.0428 37.1924 19.8327 37.3756 19.5838C37.5589 19.3349 37.6911 19.0523 37.7646 18.7521C37.8381 18.4519 37.8515 18.1401 37.804 17.8347L37.2852 14.3674C37.2787 14.3238 37.2636 14.282 37.2409 14.2443C37.2182 14.2066 37.1882 14.1737 37.1528 14.1476C37.1173 14.1215 37.0771 14.1026 37.0343 14.0921C36.9916 14.0816 36.9472 14.0796 36.9037 14.0862L30.3806 15.0602L9.45589 18.1862L4.47238 18.9325L12.9802 15.271ZM8.29452 11.2916L12.2338 14.8627L9.02414 16.245L5.06812 12.6738L8.29452 11.2916ZM12.1836 9.61814L16.1195 13.1893L12.9099 14.5715L8.95386 11.0004L12.1836 9.61814ZM16.0693 7.9447L20.0086 11.5158L16.7956 12.8981L12.8429 9.32696L16.0693 7.9447ZM19.9551 6.27125L23.8943 9.84573L20.6847 11.2246L16.7287 7.65352L19.9551 6.27125ZM23.8408 4.59781L27.7801 8.17228L24.5704 9.55455L20.6144 5.98008L23.8408 4.59781ZM27.7299 2.92437L31.6825 6.4955L28.4729 7.87776L24.5169 4.30663L27.7299 2.92437ZM30.5981 1.68602C30.8001 1.59915 31.0172 1.55292 31.237 1.54998C31.4568 1.54704 31.6751 1.58744 31.8793 1.66887C32.0835 1.7503 32.2696 1.87117 32.4271 2.02458C32.5846 2.17798 32.7103 2.36091 32.7971 2.56291L34.0521 5.47804L32.3586 6.20432L28.3892 2.63654L30.5981 1.68602ZM0.874479 15.01C1.04029 14.6061 1.35737 14.283 1.75806 14.1097L4.38201 12.9818L8.34807 16.5361L2.14629 19.2137L0.89456 16.3019C0.805761 16.0986 0.758256 15.8797 0.754809 15.6579C0.751362 15.4361 0.79204 15.2159 0.874479 15.01ZM4.7234 24.485C4.28446 24.5502 3.83761 24.4384 3.48111 24.1741C3.12462 23.9099 2.88766 23.5149 2.82237 23.076L2.3538 19.9399L9.02749 18.9359L7.54816 24.0466L4.7234 24.485ZM13.2144 18.3033L11.7318 23.424L8.27779 23.9395L9.75711 18.8187L13.2144 18.3033ZM17.398 17.6774L15.9187 22.8116L12.4681 23.3136L13.9407 18.1929L17.398 17.6774ZM21.5816 17.0516L20.1023 22.1723L16.645 22.6877L18.1277 17.5703L21.5816 17.0516ZM25.7686 16.429L24.2859 21.5464L20.8353 22.0652L22.3146 16.9445L25.7686 16.429ZM29.9522 15.8032L28.4729 20.9206L25.0155 21.4393L26.4949 16.3186L29.9522 15.8032ZM34.1358 15.1773L32.6565 20.298L29.2025 20.8034L30.6852 15.6827L34.1358 15.1773ZM37.148 17.9318C37.1808 18.1491 37.1704 18.3708 37.1175 18.5842C37.0646 18.7975 36.9702 18.9983 36.8397 19.1752C36.7091 19.352 36.545 19.5014 36.3567 19.6148C36.1684 19.7283 35.9597 19.8035 35.7423 19.8362L33.3794 20.1709L34.8587 15.0501L36.6794 14.779L37.148 17.9318Z" fill="#203858"/>
<path d="M3.26748 17.4566C3.45064 17.4574 3.63194 17.4198 3.79964 17.3461C4.10812 17.2133 4.35633 16.9708 4.49614 16.6654C4.63596 16.36 4.65743 16.0136 4.55639 15.6933C4.45536 15.373 4.23901 15.1016 3.94928 14.9318C3.65956 14.7619 3.31708 14.7056 2.98824 14.7739C2.65939 14.8421 2.36759 15.03 2.1694 15.3012C1.9712 15.5723 1.88072 15.9074 1.91549 16.2414C1.95026 16.5755 2.10781 16.8847 2.3576 17.1092C2.60739 17.3337 2.93163 17.4575 3.26748 17.4566ZM2.99304 15.4485C3.07845 15.4108 3.17079 15.3914 3.26414 15.3916C3.42961 15.3918 3.58912 15.4533 3.7119 15.5643C3.83467 15.6752 3.912 15.8277 3.92895 15.9923C3.94591 16.1569 3.9013 16.322 3.80373 16.4556C3.70616 16.5893 3.56254 16.682 3.40059 16.716C3.23865 16.75 3.06985 16.7228 2.92678 16.6397C2.78371 16.5565 2.6765 16.4234 2.62585 16.2658C2.5752 16.1083 2.5847 15.9376 2.65251 15.7866C2.72031 15.6357 2.84163 15.5152 2.99304 15.4485Z" fill="#203858"/>
<path d="M38.2627 38.1035C38.5203 37.7585 38.7065 37.3656 38.8106 36.9479C38.9146 36.5301 38.9343 36.0958 38.8685 35.6703L36.693 21.0979C36.6867 21.054 36.6717 21.0117 36.649 20.9736C36.6263 20.9354 36.5963 20.9021 36.5607 20.8755C36.5251 20.8489 36.4846 20.8296 36.4416 20.8187C36.3985 20.8078 36.3538 20.8054 36.3098 20.8118C36.2659 20.8182 36.2236 20.8331 36.1854 20.8558C36.1473 20.8785 36.1139 20.9085 36.0874 20.9441C36.0608 20.9797 36.0415 21.0202 36.0306 21.0632C36.0196 21.1063 36.0173 21.1511 36.0237 21.195L38.1991 35.7707C38.3008 36.4536 38.1275 37.149 37.7172 37.7043C37.3068 38.2596 36.693 38.6294 36.0103 38.7327L9.45609 42.7021C8.77267 42.8037 8.07683 42.63 7.52145 42.2189C6.96607 41.8079 6.59656 41.1932 6.4941 40.5099L4.31862 25.9342C4.31209 25.8907 4.29702 25.8488 4.2743 25.8111C4.25157 25.7734 4.22163 25.7406 4.18619 25.7145C4.15074 25.6883 4.1105 25.6695 4.06775 25.6589C4.025 25.6484 3.9806 25.6464 3.93708 25.6531C3.89354 25.6596 3.85172 25.6747 3.81402 25.6974C3.77631 25.7201 3.74346 25.7501 3.71735 25.7855C3.69123 25.8209 3.67236 25.8612 3.66183 25.9039C3.65129 25.9467 3.64929 25.9911 3.65594 26.0346L5.83142 40.6069C5.94822 41.3822 6.33887 42.09 6.93259 42.6021C7.52631 43.1141 8.28382 43.3966 9.06785 43.3982C9.23132 43.3986 9.39461 43.3875 9.5565 43.3648L36.1207 39.3954C36.5453 39.332 36.9532 39.1852 37.3209 38.9635C37.6885 38.7418 38.0086 38.4495 38.2627 38.1035Z" fill="#203858"/>
<path d="M34.1159 23.6383C34.2047 23.625 34.2845 23.5769 34.3379 23.5047C34.3912 23.4326 34.4137 23.3421 34.4004 23.2534C34.3871 23.1646 34.339 23.0848 34.2669 23.0314C34.1947 22.9781 34.1043 22.9556 34.0155 22.9689L20.3435 25.0105L6.67146 27.0521C6.62792 27.0586 6.5861 27.0737 6.54839 27.0964C6.51069 27.1191 6.47784 27.1491 6.45172 27.1845C6.4256 27.22 6.40674 27.2602 6.3962 27.303C6.38566 27.3457 6.38367 27.3901 6.39032 27.4336C6.40242 27.5134 6.44296 27.5862 6.50446 27.6385C6.56597 27.6907 6.64429 27.719 6.72501 27.7181H6.77856L12.2005 26.9082L12.8967 31.6474L7.47805 32.4573C7.4341 32.4604 7.39119 32.4721 7.35176 32.4917C7.31233 32.5114 7.27716 32.5386 7.24826 32.5719C7.21935 32.6052 7.19728 32.6438 7.18331 32.6856C7.16933 32.7273 7.16372 32.7715 7.16679 32.8154C7.16987 32.8594 7.18157 32.9023 7.20124 32.9417C7.2209 32.9812 7.24813 33.0163 7.28139 33.0452C7.31464 33.0741 7.35326 33.0962 7.39505 33.1102C7.43683 33.1242 7.48096 33.1298 7.52491 33.1267H7.57511L13.3251 32.2665L20.9191 31.1353L21.3475 34.0136L8.00686 36.0217C7.96291 36.025 7.92004 36.037 7.88069 36.0568C7.84135 36.0767 7.8063 36.1041 7.77755 36.1375C7.71949 36.205 7.69062 36.2928 7.69727 36.3815C7.70393 36.4703 7.74558 36.5528 7.81305 36.6108C7.88053 36.6689 7.9683 36.6978 8.05706 36.6911H8.11731L21.4613 34.683L21.8763 37.5379L8.53567 39.546C8.49213 39.5525 8.45031 39.5676 8.41261 39.5903C8.3749 39.6131 8.34205 39.643 8.31593 39.6784C8.28982 39.7139 8.27095 39.7541 8.26042 39.7969C8.24988 39.8396 8.24788 39.884 8.25453 39.9276C8.26663 40.0074 8.30717 40.0801 8.36868 40.1324C8.43018 40.1847 8.5085 40.2129 8.58922 40.212H8.63608L22.3114 38.1704L35.9835 36.1288C36.027 36.1223 36.0688 36.1072 36.1065 36.0845C36.1442 36.0618 36.1771 36.0318 36.2032 35.9964C36.2293 35.961 36.2482 35.9207 36.2587 35.878C36.2692 35.8352 36.2712 35.7908 36.2646 35.7473C36.2514 35.66 36.2042 35.5815 36.1334 35.5289C36.0625 35.4762 35.9738 35.4537 35.8864 35.4662L22.5424 37.4576L21.5785 31.0282L34.9225 29.0201C34.9664 29.0135 35.0087 28.9983 35.0468 28.9754C35.0848 28.9525 35.118 28.9223 35.1445 28.8865C35.1709 28.8508 35.19 28.8102 35.2007 28.7671C35.2114 28.7239 35.2136 28.6791 35.207 28.6352C35.2004 28.5912 35.1852 28.549 35.1623 28.5109C35.1394 28.4728 35.1092 28.4396 35.0735 28.4132C35.0377 28.3868 34.9971 28.3677 34.954 28.3569C34.9109 28.3462 34.866 28.3441 34.8221 28.3507L25.1864 29.8099L24.4936 25.0741L34.1159 23.6383ZM13.5593 31.5503L12.8498 26.8279L20.1125 25.7435L20.8355 30.4659L13.5593 31.5503ZM24.5371 29.9103L21.4814 30.3655L20.7719 25.6297L23.8477 25.1745L24.5371 29.9103Z" fill="#203858"/>
</svg>
