<svg width="55" height="46" viewBox="0 0 55 46" fill="none" xmlns="http://www.w3.org/2000/svg">
<path d="M2.41389 22.7153C2.41389 22.5239 2.33168 22.336 2.18839 22.2007C2.04509 22.0654 1.84623 21.9877 1.6435 21.9877C1.44088 21.9877 1.24201 22.0654 1.09872 22.2007C0.95538 22.3361 0.87311 22.5239 0.873165 22.7153C0.873165 22.9067 0.955434 23.0945 1.09872 23.2298C1.24201 23.3652 1.44082 23.4429 1.64355 23.4429C1.84618 23.4429 2.04504 23.3652 2.18839 23.2298C2.33168 23.0945 2.41395 22.9067 2.41389 22.7153Z" fill="#F6891F"/>
<path d="M20.0052 40.4648V33.025C20.0052 31.9146 19.5474 30.8708 18.716 30.0856C17.8846 29.3004 16.7794 28.8681 15.6036 28.8681L12.8566 28.868C12.8565 28.868 12.8564 28.868 12.8562 28.868C12.8561 28.868 12.856 28.868 12.8559 28.868L11.7586 28.868L11.7586 16.3128L15.6036 16.3129C18.0306 16.3128 20.0052 14.448 20.0052 12.1559L20.0052 4.72255C20.0051 2.43057 18.0305 0.565771 15.6036 0.565617L13.5275 0.565565C6.54966 0.565618 0.872737 5.92699 0.872682 12.517L0.872682 19.7465C0.872737 20.1483 1.21772 20.4741 1.64323 20.4742C2.06874 20.4742 2.41372 20.1484 2.41378 19.7465L2.41378 12.517C2.41372 7.19091 6.63624 2.77882 12.0858 2.10919L12.0857 9.92421C12.0858 10.1251 12.172 10.3071 12.3114 10.4388C12.4508 10.5704 12.6435 10.6519 12.8562 10.6519C13.2818 10.6519 13.6268 10.3261 13.6268 9.92416L13.6268 2.02095L15.6036 2.02095C17.1809 2.02105 18.4642 3.23285 18.4642 4.72255L18.4642 12.1558C18.4642 13.6455 17.181 14.8574 15.6036 14.8574L10.9881 14.8574C10.7837 14.8574 10.5877 14.934 10.4433 15.0705C10.2988 15.207 10.2176 15.392 10.2176 15.585L10.2176 29.5956C10.2176 29.9976 10.5626 30.3233 10.9881 30.3233L12.0857 30.3233V43.0788C9.6635 42.7844 7.42422 41.75 5.66884 40.0922C3.56973 38.1097 2.41372 35.474 2.41372 32.6703L2.41372 25.3379C2.41372 24.9361 2.06868 24.6103 1.64323 24.6102C1.21772 24.6102 0.872734 24.936 0.872681 25.3379L0.87268 32.6704C0.87268 35.8627 2.18904 38.864 4.57919 41.1213C6.9694 43.3786 10.1473 44.6218 13.5275 44.6218L15.6036 44.6217C16.7793 44.6218 17.8846 44.1894 18.716 43.4042C19.5474 42.619 20.0052 41.5752 20.0052 40.4648ZM15.6036 43.1664H13.6268L13.6268 30.3234H15.6036C16.3678 30.3233 17.0861 30.6043 17.6264 31.1146C18.1667 31.6249 18.4642 32.3033 18.4642 33.0249L18.4641 40.4648C18.4642 41.1864 18.1666 41.8649 17.6264 42.3751C17.0861 42.8854 16.3677 43.1665 15.6036 43.1664Z" fill="#F6891F"/>
<path d="M13.6266 12.426C13.6272 12.234 13.5444 12.0467 13.4011 11.9114C13.2578 11.7761 13.0594 11.6979 12.8562 11.6984C12.6535 11.6984 12.4551 11.7756 12.3113 11.9114C12.168 12.0467 12.0858 12.2346 12.0858 12.426C12.0858 12.6174 12.168 12.8052 12.3113 12.9405C12.4546 13.0758 12.6535 13.1535 12.8562 13.1535C13.0589 13.1535 13.2578 13.0758 13.4011 12.9405C13.5444 12.8052 13.6266 12.6174 13.6266 12.426Z" fill="#F6891F"/>
<path d="M42.9813 17.1344C42.8527 15.37 41.3469 13.948 39.4788 13.8264C38.4192 13.7583 37.4098 14.0949 36.6363 14.7769C35.8736 15.4492 35.436 16.3998 35.436 17.3851C35.436 17.9533 35.9238 18.414 36.5255 18.414C37.1272 18.414 37.615 17.9533 37.615 17.3851C37.615 16.9621 37.7954 16.57 38.1231 16.2812C38.4502 15.9927 38.878 15.8504 39.329 15.8794C40.1177 15.9307 40.7534 16.5311 40.8076 17.2759C40.8626 18.029 40.3399 18.6945 39.565 18.8583C38.7164 19.0373 38.1237 19.7341 38.1237 20.5524V22.4056C38.1237 22.9738 38.6115 23.4345 39.2132 23.4345C39.8149 23.4345 40.3026 22.9738 40.3026 22.4056V20.8019C41.9907 20.3263 43.1046 18.8234 42.9813 17.1344Z" fill="#F6891F"/>
<path d="M39.9838 25.3392C39.7811 25.1479 39.5 25.0388 39.2135 25.0388C38.927 25.0388 38.6459 25.148 38.4432 25.3392C38.2406 25.5316 38.124 25.7961 38.124 26.0677C38.124 26.3383 38.2406 26.6037 38.4432 26.7951C38.6459 26.9865 38.927 27.0966 39.2135 27.0966C39.5 27.0966 39.7811 26.9866 39.9838 26.7951C40.1864 26.6036 40.303 26.3383 40.303 26.0677C40.303 25.7961 40.1864 25.5316 39.9838 25.3392Z" fill="#F6891F"/>
<path d="M52.1292 17.0402L42.444 7.89333C40.6638 6.21213 37.5283 6.43785 35.4544 8.39651L26.8809 16.4935C24.8069 18.4521 24.5679 21.4134 26.3481 23.0946L28.7968 25.4072L27.8195 29.9003C27.7563 30.1909 27.837 30.4722 28.0376 30.6616C28.038 30.662 28.0383 30.6624 28.0387 30.6627C28.2403 30.8522 28.5392 30.9276 28.8473 30.8668L33.5871 29.9312L36.0332 32.2414C37.8134 33.9226 40.9489 33.6969 43.0228 31.7383L51.5963 23.6413C53.6703 21.6827 53.9094 18.7215 52.1292 17.0402ZM41.7317 30.5188C40.4873 31.694 38.6058 31.8294 37.5378 30.8206L34.7719 28.2085C34.5705 28.0183 34.271 27.9423 33.9622 28.0033L30.026 28.7803L30.8377 25.0484C30.9009 24.7578 30.8203 24.4765 30.6197 24.2871L27.8527 21.6739C26.7846 20.6651 26.928 18.8884 28.1724 17.7132L36.7459 9.61622C37.9902 8.44102 39.8715 8.30559 40.9396 9.31431L50.6248 18.4612C51.6929 19.4699 51.5495 21.2467 50.3052 22.4219L41.7317 30.5188Z" fill="#F6891F"/>
</svg>
