<svg width="55" height="54" viewBox="0 0 55 54" fill="none" xmlns="http://www.w3.org/2000/svg">
<path d="M36.0445 14.3543C33.5554 11.9601 30.2859 10.7262 26.8265 10.8527C20.1925 11.1164 14.7819 16.7273 14.7609 23.3719C14.7503 26.3144 15.7839 29.1832 17.6718 31.4402C20.3929 34.7098 21.8905 38.8336 21.8905 43.0629C21.8905 43.0629 21.6058 45.0035 22.9874 45.0035H31.678C33.0913 45.0035 32.7749 43.0629 32.7749 43.0629C32.7749 38.9285 34.2937 34.8363 37.173 31.2293C38.9554 28.9828 39.9046 26.2828 39.9046 23.414C39.9046 19.9652 38.5335 16.7379 36.0445 14.3543V14.3543ZM35.4538 29.8582C32.3214 33.7816 30.6444 38.2535 30.5812 42.8097H24.0843C24.021 38.1586 22.3546 33.634 19.3593 30.0375C17.8089 28.1707 16.9546 25.8082 16.9651 23.3824C16.9862 17.898 21.4476 13.268 26.9214 13.0465C29.7796 12.941 32.4796 13.9641 34.5257 15.9363C36.5823 17.9086 37.7109 20.5664 37.7109 23.414C37.7003 25.7871 36.9304 28.0125 35.4538 29.8582V29.8582Z" fill="#E44D33"/>
<path d="M41.803 7.15078C41.3706 6.71836 40.6745 6.71836 40.2526 7.15078L37.5737 9.82968C37.1413 10.2621 37.1413 10.9582 37.5737 11.3801C38.0062 11.802 38.7023 11.8125 39.1241 11.3801L41.803 8.70117C42.2355 8.27929 42.2355 7.5832 41.803 7.15078Z" fill="#E44D33"/>
<path d="M31.7202 46.5011H22.9452C22.3335 46.5011 21.8484 46.9968 21.8484 47.598C21.8484 48.2097 22.3441 48.6949 22.9452 48.6949H31.7202C32.332 48.6949 32.8171 48.1992 32.8171 47.598C32.8171 46.9968 32.3214 46.5011 31.7202 46.5011Z" fill="#E44D33"/>
<path d="M30.0644 50.6356H24.6116C23.9999 50.6356 23.5148 51.1313 23.5148 51.7324C23.5148 52.3442 24.0105 52.8293 24.6116 52.8293H30.0644C30.6761 52.8293 31.1612 52.3336 31.1612 51.7324C31.1612 51.1313 30.6655 50.6356 30.0644 50.6356Z" fill="#E44D33"/>
<path d="M27.3327 7.14023C27.9444 7.14023 28.4296 6.64453 28.4296 6.04336V2.25703C28.4296 1.64531 27.9339 1.16016 27.3327 1.16016C26.7315 1.16016 26.2358 1.65586 26.2358 2.25703V6.04336C26.2358 6.65508 26.721 7.14023 27.3327 7.14023Z" fill="#E44D33"/>
<path d="M17.0917 11.3906C17.5241 10.9582 17.5241 10.2621 17.0917 9.84023L14.4128 7.16132C13.9804 6.7289 13.2843 6.7289 12.8624 7.16132C12.4406 7.59374 12.43 8.28984 12.8624 8.71171L15.5413 11.3906C15.9738 11.8125 16.6698 11.8125 17.0917 11.3906V11.3906Z" fill="#E44D33"/>
<path d="M46.6968 20.5242H42.9105C42.2988 20.5242 41.8136 21.0199 41.8136 21.6211C41.8136 22.2223 42.3093 22.718 42.9105 22.718H46.6968C47.3085 22.718 47.7937 22.2223 47.7937 21.6211C47.7937 21.0199 47.298 20.5242 46.6968 20.5242Z" fill="#E44D33"/>
<path d="M11.755 20.5242H7.96867C7.35695 20.5242 6.8718 21.0199 6.8718 21.6211C6.8718 22.2223 7.3675 22.718 7.96867 22.718H11.755C12.3667 22.718 12.8519 22.2223 12.8519 21.6211C12.8519 21.0199 12.3667 20.5242 11.755 20.5242V20.5242Z" fill="#E44D33"/>
</svg>
