<svg width="35" height="35" viewBox="0 0 35 35" fill="none" xmlns="http://www.w3.org/2000/svg">
<path d="M32.6667 4.66669V5.83335C33.3111 5.83335 33.8333 6.35558 33.8333 7.00002V24.5H1.16667V7.00002C1.16667 6.35558 1.6889 5.83335 2.33333 5.83335V4.66669C1.04475 4.66669 0 5.71144 0 7.00002V26.8334C0 28.1219 1.04475 29.1667 2.33333 29.1667H13.7993L12.3993 33.8334H11.0833V35H23.9167V33.8334H22.6007L21.2007 29.1667H32.6667C33.9552 29.1667 35 28.1219 35 26.8334V7.00002C35 5.71144 33.9552 4.66669 32.6667 4.66669ZM21.3827 33.8334H13.6173L15.0173 29.1667H19.9827L21.3827 33.8334ZM33.8333 26.8334C33.8333 27.4778 33.3111 28 32.6667 28H2.33333C1.6889 28 1.16667 27.4778 1.16667 26.8334V25.6667H33.8333V26.8334Z" fill="#5E6D85"/>
<path d="M3.5 2.33333V23.3333H4.66667V2.33333C4.66667 1.6889 5.1889 1.16667 5.83333 1.16667H29.1667C29.8111 1.16667 30.3333 1.6889 30.3333 2.33333V23.3333H31.5V2.33333C31.5 1.04475 30.4553 0 29.1667 0H5.83333C4.54475 0 3.5 1.04475 3.5 2.33333Z" fill="#5E6D85"/>
<path d="M5.83337 2.33331H7.00004V3.49998H5.83337V2.33331Z" fill="#5E6D85"/>
<path d="M8.16663 2.33331H9.33329V3.49998H8.16663V2.33331Z" fill="#5E6D85"/>
<path d="M10.5 2.33331H11.6667V3.49998H10.5V2.33331Z" fill="#5E6D85"/>
<path d="M5.83337 4.66669H29.1667V5.83335H5.83337V4.66669Z" fill="#5E6D85"/>
<path d="M12.8334 8.16667C12.8334 7.52223 12.3111 7 11.6667 7H7.00004C6.3556 7 5.83337 7.52223 5.83337 8.16667V11.6667C5.83337 12.3111 6.3556 12.8333 7.00004 12.8333H11.6667C12.3111 12.8333 12.8334 12.3111 12.8334 11.6667V8.16667ZM7.00004 11.6667V8.16667H11.6667V11.6667H7.00004Z" fill="#5E6D85"/>
<path d="M21 8.16667C21 7.52223 20.4778 7 19.8333 7H15.1667C14.5222 7 14 7.52223 14 8.16667V11.6667C14 12.3111 14.5222 12.8333 15.1667 12.8333H19.8333C20.4778 12.8333 21 12.3111 21 11.6667V8.16667ZM15.1667 11.6667V8.16667H19.8333V11.6667H15.1667Z" fill="#5E6D85"/>
<path d="M29.1668 8.16667C29.1668 7.52223 28.6445 7 28.0001 7H23.3334C22.689 7 22.1667 7.52223 22.1667 8.16667V11.6667C22.1667 12.3111 22.689 12.8333 23.3334 12.8333H28.0001C28.6445 12.8333 29.1668 12.3111 29.1668 11.6667V8.16667ZM23.3334 11.6667V8.16667H28.0001V11.6667H23.3334Z" fill="#5E6D85"/>
<path d="M12.8334 15.1667C12.8334 14.5222 12.3111 14 11.6667 14H7.00004C6.3556 14 5.83337 14.5222 5.83337 15.1667V18.6667C5.83337 19.3111 6.3556 19.8333 7.00004 19.8333H11.6667C12.3111 19.8333 12.8334 19.3111 12.8334 18.6667V15.1667ZM7.00004 18.6667V15.1667H11.6667V18.6667H7.00004Z" fill="#5E6D85"/>
<path d="M21 15.1667C21 14.5222 20.4778 14 19.8333 14H15.1667C14.5222 14 14 14.5222 14 15.1667V18.6667C14 19.3111 14.5222 19.8333 15.1667 19.8333H19.8333C20.4778 19.8333 21 19.3111 21 18.6667V15.1667ZM15.1667 18.6667V15.1667H19.8333V18.6667H15.1667Z" fill="#5E6D85"/>
<path d="M29.1668 15.1667C29.1668 14.5222 28.6445 14 28.0001 14H23.3334C22.689 14 22.1667 14.5222 22.1667 15.1667V18.6667C22.1667 19.3111 22.689 19.8333 23.3334 19.8333H28.0001C28.6445 19.8333 29.1668 19.3111 29.1668 18.6667V15.1667ZM23.3334 18.6667V15.1667H28.0001V18.6667H23.3334Z" fill="#5E6D85"/>
<path d="M12.8334 23.3333V22.1667C12.8334 21.5222 12.3111 21 11.6667 21H7.00004C6.3556 21 5.83337 21.5222 5.83337 22.1667V23.3333H7.00004V22.1667H11.6667V23.3333H12.8334Z" fill="#5E6D85"/>
<path d="M21 23.3333V22.1667C21 21.5222 20.4778 21 19.8333 21H15.1667C14.5222 21 14 21.5222 14 22.1667V23.3333H15.1667V22.1667H19.8333V23.3333H21Z" fill="#5E6D85"/>
<path d="M29.1668 23.3333V22.1667C29.1668 21.5222 28.6445 21 28.0001 21H23.3334C22.689 21 22.1667 21.5222 22.1667 22.1667V23.3333H23.3334V22.1667H28.0001V23.3333H29.1668Z" fill="#5E6D85"/>
</svg>
