<svg width="59" height="59" viewBox="0 0 59 59" fill="none" xmlns="http://www.w3.org/2000/svg">
<g clip-path="url(#clip0)">
<path d="M20.6915 14.6694C24.1973 14.6949 27.7013 14.5128 31.1857 14.1243C35.3422 13.6061 35.915 12.9738 35.915 12.3692C35.915 10.1786 23.2302 10.0779 20.6915 10.0779C17.1843 10.0542 13.6789 10.2363 10.1928 10.623C6.03669 11.1408 5.46387 11.7731 5.46387 12.3826C5.46387 14.5593 18.1482 14.6694 20.6915 14.6694ZM20.6915 11.0034C28.7203 11.0034 33.9809 11.7915 34.8974 12.3781C33.9536 12.9738 28.7109 13.7529 20.6915 13.7529C12.672 13.7529 7.40205 12.9648 6.48554 12.3781C7.41593 11.7686 12.6586 10.9806 20.6915 10.9806V11.0034Z" fill="#345BA9"/>
<path d="M50.4095 47.9936C51.4021 47.9963 52.2086 47.193 52.2103 46.2004C52.2121 45.2078 51.4084 44.4019 50.4154 44.401C49.4228 44.4001 48.6177 45.2047 48.6177 46.1973C48.6199 47.1868 49.4201 47.9887 50.4095 47.9936ZM50.4095 45.3175C50.644 45.3157 50.8696 45.4101 51.0325 45.5788C51.1972 45.7426 51.2898 45.965 51.2894 46.1973C51.2894 46.6833 50.8955 47.0771 50.4095 47.0771C49.9235 47.0771 49.5297 46.6833 49.5297 46.1973C49.5297 45.7113 49.9235 45.3175 50.4095 45.3175Z" fill="#345BA9"/>
<path d="M20.6914 50.3628C30.292 50.3628 40.4975 48.7316 40.4975 45.7118V15.6638C40.502 15.6302 40.502 15.5967 40.4975 15.5631C40.4975 15.5354 40.4975 15.5125 40.4975 15.4897C40.4832 15.4638 40.4662 15.4391 40.447 15.4163C40.447 15.3935 40.4147 15.3662 40.3964 15.3479C40.3776 15.3322 40.3579 15.3188 40.3369 15.3062C40.3096 15.283 40.2787 15.2646 40.2451 15.2516C40.2192 15.2494 40.1932 15.2494 40.1673 15.2516C40.1413 15.2494 40.1154 15.2494 40.0894 15.2516C40.0576 15.2472 40.0254 15.2472 39.9932 15.2516H39.9153L39.8513 15.2973C39.8236 15.3129 39.7972 15.3313 39.7735 15.3523C39.7578 15.3711 39.7444 15.3908 39.7318 15.4118C39.7121 15.4414 39.6938 15.4718 39.6772 15.5036C39.0033 17.3366 31.6439 18.9495 21.6813 18.4545C21.906 17.538 22.3504 17.0063 23.5143 17.0063H23.8947C34.1871 17.0063 40.5844 15.2284 40.5844 12.3598C40.5844 9.33996 30.3792 7.70877 20.7787 7.70877C11.1781 7.70877 0.885742 9.34891 0.885742 12.3692V45.7118C0.885742 48.7316 11.0864 50.3628 20.6914 50.3628ZM20.6914 8.63423C32.3908 8.63423 39.581 10.8065 39.581 12.3692C39.581 14.1655 34.6454 16.0992 23.8075 16.0992H23.4226C20.8749 16.0992 20.6502 18.2531 20.5035 19.678C20.4717 19.9805 20.4395 20.2602 20.3983 20.5077C20.1598 21.9456 19.7995 23.3606 19.3216 24.7372C18.0475 28.2886 17.0943 28.5683 16.8329 28.5683C16.086 28.5683 15.6233 27.0468 15.2201 25.7087C14.6701 23.8757 14.0973 22.0109 12.5346 22.0109C11.2054 22.0109 11.0085 24.1187 10.7521 26.7904C10.5136 29.3063 10.216 32.4362 8.87791 32.4362C7.64948 32.4362 7.57162 30.6032 7.54432 27.3954C7.51657 24.0225 7.47093 19.4628 5.33986 15.389C6.97732 15.8227 8.64118 16.1489 10.3211 16.3651C11.6503 16.5481 13.0707 16.6949 14.5828 16.8233C14.833 16.839 15.0491 16.6515 15.0688 16.4018C15.0872 16.1502 14.8988 15.931 14.6473 15.9113C13.1714 15.8061 11.7554 15.6593 10.4451 15.4808C4.48779 14.6694 1.80225 13.3085 1.80225 12.3875C1.80225 10.8065 8.98755 8.63423 20.6914 8.63423ZM1.80225 43.3426C4.23092 45.2857 11.3249 46.5504 20.6914 46.5504C20.9447 46.5504 21.1497 46.345 21.1497 46.0921C21.1497 45.8388 20.9447 45.6339 20.6914 45.6339C7.80522 45.6339 1.80225 43.3426 1.80225 41.7982V13.8719C2.49187 14.3593 3.2522 14.7379 4.05683 14.9948C6.55441 19.0551 6.60006 23.8985 6.62781 27.4227C6.65958 30.7406 6.67793 33.3572 8.87791 33.3572C11.0774 33.3572 11.375 29.9158 11.6637 26.8821C11.7966 25.5073 12.0396 22.9319 12.5346 22.9319C13.4282 22.9319 13.8865 24.4807 14.3448 25.979C14.867 27.7069 15.4081 29.4893 16.8374 29.4893C18.0197 29.4893 19.1287 28.0367 20.1875 25.0536C20.6829 23.6273 21.057 22.1617 21.3054 20.6724C21.356 20.3931 21.3837 20.0951 21.42 19.7559C21.42 19.614 21.4477 19.4811 21.4661 19.3482C22.6667 19.4122 23.8858 19.4489 25.0999 19.4489C28.6084 19.4963 32.112 19.1737 35.5529 18.4867V34.9105C35.5529 35.1638 35.7579 35.3688 36.0112 35.3688C36.264 35.3688 36.4694 35.1638 36.4694 34.9105V18.2804C37.582 18.0133 38.6377 17.5474 39.5855 16.9057V45.7118C39.5855 47.2696 32.3953 49.4463 20.6963 49.4463C8.99695 49.4463 1.80225 47.2696 1.80225 45.7118V43.3426Z" fill="#345BA9"/>
<path d="M36.0061 43.2782C36.2594 43.2782 36.4644 43.0732 36.4644 42.8199V38.7323C36.4644 38.4795 36.2594 38.274 36.0061 38.274C35.7533 38.274 35.5479 38.4795 35.5479 38.7323V42.8199C35.5479 43.0732 35.7533 43.2782 36.0061 43.2782Z" fill="#345BA9"/>
<path d="M43.2149 13.2213C43.0931 13.2208 42.9759 13.2687 42.8895 13.3542C42.8036 13.4405 42.7557 13.5578 42.7566 13.6795V33.8566C42.7557 33.9806 42.8054 34.0996 42.894 34.1864C42.9853 34.267 43.1021 34.3126 43.2238 34.3149C43.2516 34.3149 45.8588 34.2554 47.2796 35.6346C47.8936 36.2356 48.2261 37.0671 48.1962 37.9259C48.1962 39.2684 47.7379 40.6754 47.2796 41.9996C46.4777 44.4471 45.6435 46.9719 47.3253 49.5152C47.9003 50.4062 48.7672 51.0703 49.7772 51.3938C50.1804 51.5039 50.606 51.5039 51.0097 51.3938C52.0197 51.0703 52.8861 50.4062 53.4616 49.5152C55.1434 46.9719 54.3092 44.4471 53.5073 41.9996C53.049 40.6571 52.5908 39.2501 52.5908 37.9259C52.5621 37.0675 52.8946 36.2365 53.5073 35.6346C54.9187 34.2598 57.5354 34.3104 57.5627 34.3149C57.6848 34.3149 57.8025 34.2688 57.8929 34.1864C57.9829 34.1005 58.0343 33.9815 58.0348 33.8566V13.6795C58.0348 13.4267 57.8298 13.2213 57.5765 13.2213H43.2149ZM43.6731 14.1378H44.9239V17.6803C44.9239 17.9331 45.1293 18.1386 45.3822 18.1386C45.6355 18.1386 45.8404 17.9331 45.8404 17.6803V14.1516H46.8809V20.173C46.8809 20.4262 47.0859 20.6312 47.3392 20.6312C47.592 20.6312 47.7974 20.4262 47.7974 20.173V14.1378H49.9647V15.6732C49.9647 15.926 50.1701 16.1314 50.423 16.1314C50.6763 16.1314 50.8813 15.926 50.8813 15.6732V14.1378H53.787C53.4616 14.8117 52.6503 16.5714 52.6503 17.2176C52.6503 18.1032 53.3685 18.8215 54.2542 18.8215C55.1398 18.8215 55.8581 18.1032 55.8581 17.2176C55.8581 16.5714 55.0472 14.8117 54.7218 14.1378H57.1505V26.2037H55.4593V23.2939C55.4593 23.0406 55.2544 22.8357 55.0011 22.8357C54.7482 22.8357 54.5428 23.0406 54.5428 23.2939V26.2037H53.5762V24.1232C53.5762 23.8703 53.3708 23.6649 53.1179 23.6649C52.8646 23.6649 52.6597 23.8703 52.6597 24.1232V26.2037H45.8588V24.444C45.8588 24.1907 45.6538 23.9858 45.4005 23.9858C45.1477 23.9858 44.9423 24.1907 44.9423 24.444V26.2037H43.6731V14.1378ZM54.213 15.3246C54.5227 15.9274 54.7612 16.5642 54.9232 17.222C54.9232 17.6015 54.6153 17.9094 54.2358 17.9094C53.8563 17.9094 53.5484 17.6015 53.5484 17.222C53.7046 16.5646 53.9369 15.9283 54.2403 15.3246H54.213ZM43.6731 27.1202H57.1138V28.6279H46.5739C46.3206 28.6279 46.1157 28.8333 46.1157 29.0861C46.1157 29.3394 46.3206 29.5444 46.5739 29.5444H57.1138V31.052H43.6731V27.1202ZM57.1183 33.4073C56.2018 33.4534 54.1763 33.7054 52.8705 34.975C52.0837 35.7496 51.6568 36.8178 51.6926 37.9214C51.6926 39.4107 52.1509 40.8723 52.6364 42.2838C53.4066 44.6212 54.1307 46.8346 52.6959 49.0064C52.239 49.7197 51.5494 50.2522 50.7439 50.514C50.5134 50.5691 50.2735 50.5691 50.0426 50.514C49.2375 50.2522 48.5479 49.7197 48.0905 49.0064C46.6563 46.8346 47.3803 44.6212 48.1501 42.2838C48.6083 40.8723 49.0943 39.4107 49.0943 37.9214C49.1301 36.8178 48.7032 35.7496 47.9165 34.975C46.629 33.7192 44.5896 33.4534 43.6731 33.4073V31.9686H57.1183V33.4073Z" fill="#345BA9"/>
<path d="M16.6866 30.6855C16.5112 30.6851 16.3509 30.7849 16.274 30.942C15.9943 31.5197 15.0872 33.444 15.0872 34.1498C15.0872 35.0358 15.805 35.7537 16.6911 35.7537C17.5767 35.7537 18.2949 35.0358 18.2949 34.1498C18.2949 33.4673 17.3784 31.5425 17.1126 30.942C17.0334 30.7804 16.8665 30.6797 16.6866 30.6855ZM16.6866 34.8098C16.3111 34.8098 16.0059 34.5069 16.0037 34.1314C16.1581 33.4767 16.3872 32.8417 16.6866 32.2389C16.9851 32.8412 17.2124 33.4767 17.3646 34.1314C17.3619 34.5042 17.0594 34.8054 16.6866 34.8054V34.8098Z" fill="#345BA9"/>
</g>
<defs>
<clipPath id="clip0">
<rect x="0.885742" y="0.967621" width="57.149" height="57.149" fill="white"/>
</clipPath>
</defs>
</svg>
