<svg width="48" height="31" viewBox="0 0 48 31" fill="none" xmlns="http://www.w3.org/2000/svg">
<g clip-path="url(#clip0)">
<path d="M43.443 0.129608H4.85496C2.63183 0.129608 0.822998 1.87955 0.822998 4.03064V26.526C0.822998 28.6771 2.63183 30.4271 4.85496 30.4271H43.443C45.6664 30.4271 47.4753 28.6771 47.4753 26.526V4.03064C47.4753 1.87955 45.6664 0.129608 43.443 0.129608V0.129608ZM46.0896 26.526C46.0896 27.9378 44.9023 29.0866 43.443 29.0866H4.85496C3.39601 29.0866 2.20863 27.9378 2.20863 26.526V4.03064C2.20863 2.61884 3.39601 1.47012 4.85496 1.47012H43.443C44.9023 1.47012 46.0896 2.61884 46.0896 4.03064V26.526Z" fill="#54489E"/>
<path d="M21.5625 5.49203H5.4884C5.10578 5.49203 4.79541 5.79196 4.79541 6.16247V7.77088C4.79541 8.14104 5.10578 8.44096 5.4884 8.44096C5.87103 8.44096 6.1814 8.14104 6.1814 7.77088V6.83255H20.8699V23.188H6.1814V10.4523C6.1814 10.0821 5.87103 9.78183 5.4884 9.78183C5.10578 9.78183 4.79541 10.0821 4.79541 10.4523V23.8581C4.79541 24.2283 5.10578 24.5285 5.4884 24.5285H21.5625C21.9451 24.5285 22.2555 24.2283 22.2555 23.8581V6.16247C22.2555 5.79196 21.9451 5.49203 21.5625 5.49203Z" fill="#54489E"/>
<path d="M42.9951 7.04636H25.6276C25.2449 7.04636 24.9346 7.34662 24.9346 7.71679C24.9346 8.08695 25.2449 8.38687 25.6276 8.38687H42.9951C43.3777 8.38687 43.6878 8.08695 43.6878 7.71679C43.6878 7.34662 43.3777 7.04636 42.9951 7.04636Z" fill="#54489E"/>
<path d="M42.9952 11.9088H39.1152C38.7326 11.9088 38.4226 12.2087 38.4226 12.5789C38.4226 12.949 38.7326 13.2493 39.1152 13.2493H42.9952C43.3778 13.2493 43.6879 12.949 43.6879 12.5789C43.6879 12.2087 43.3778 11.9088 42.9952 11.9088Z" fill="#54489E"/>
<path d="M25.6276 13.2493H36.3435C36.7261 13.2493 37.0365 12.949 37.0365 12.5789C37.0365 12.2087 36.7261 11.9088 36.3435 11.9088H25.6276C25.2449 11.9088 24.9346 12.2087 24.9346 12.5789C24.9346 12.949 25.2449 13.2493 25.6276 13.2493Z" fill="#54489E"/>
<path d="M42.9951 16.7712H25.6276C25.2449 16.7712 24.9346 17.0712 24.9346 17.4413C24.9346 17.8115 25.2449 18.1118 25.6276 18.1118H42.9951C43.3777 18.1118 43.6878 17.8115 43.6878 17.4413C43.6878 17.0712 43.3777 16.7712 42.9951 16.7712Z" fill="#54489E"/>
<path d="M35.0504 21.6337H25.6276C25.2449 21.6337 24.9346 21.9336 24.9346 22.3038C24.9346 22.6739 25.2449 22.9742 25.6276 22.9742H35.0504C35.433 22.9742 35.743 22.6739 35.743 22.3038C35.743 21.9336 35.433 21.6337 35.0504 21.6337Z" fill="#54489E"/>
<path d="M8.67554 21.7132C8.67554 22.0833 8.98591 22.3833 9.36853 22.3833C9.75115 22.3833 10.0615 22.0833 10.0615 21.7132C10.0615 19.8651 11.6155 18.3617 13.5258 18.3617C15.436 18.3617 16.99 19.8651 16.99 21.7132C16.99 22.0833 17.3 22.3833 17.6827 22.3833C18.0653 22.3833 18.3757 22.0833 18.3757 21.7132C18.3757 20.008 17.4307 18.5129 16.0208 17.6913C17.4307 16.8697 18.3757 15.3746 18.3757 13.6694C18.3757 11.0824 16.1999 8.97742 13.5258 8.97742C10.8513 8.97742 8.67554 11.0824 8.67554 13.6694C8.67554 15.3746 9.62088 16.8697 11.0307 17.6913C9.62088 18.5129 8.67554 20.008 8.67554 21.7132ZM10.0615 13.6694C10.0615 11.8213 11.6155 10.3179 13.5258 10.3179C15.436 10.3179 16.99 11.8213 16.99 13.6694C16.99 15.5175 15.436 17.0209 13.5258 17.0209C11.6155 17.0209 10.0615 15.5175 10.0615 13.6694Z" fill="#54489E"/>
</g>
<defs>
<clipPath id="clip0">
<rect x="0.822998" y="0.129608" width="46.6523" height="30.324" fill="white"/>
</clipPath>
</defs>
</svg>
