<svg width="44" height="43" viewBox="0 0 44 43" fill="none" xmlns="http://www.w3.org/2000/svg">
<g clip-path="url(#clip0)">
<path d="M41.4855 17.937C41.4855 17.937 41.4855 17.937 41.4855 17.9095C41.4774 17.897 41.4681 17.8851 41.458 17.8742L41.4108 17.8271C41.3998 17.8169 41.3879 17.8078 41.3755 17.7996L35.7268 14.3571V10.4906C35.7268 10.2739 35.5508 10.0981 35.3337 10.0981H28.7612L22.2595 6.12178C22.1378 6.05161 21.9881 6.05161 21.8664 6.12178L15.345 10.0981H8.76469C8.54761 10.0981 8.3716 10.2739 8.3716 10.4906V14.3571L2.78186 17.78L2.75041 17.8074L2.70324 17.8545C2.69312 17.8655 2.68398 17.8774 2.67573 17.8899C2.67573 17.8899 2.67573 17.9095 2.67573 17.9173C2.66462 17.934 2.65656 17.9527 2.65214 17.9723C2.65047 17.988 2.65047 18.0037 2.65214 18.0194C2.65018 18.035 2.65018 18.0509 2.65214 18.0665C2.65214 18.0665 2.65214 18.0665 2.65214 18.094V41.4103C2.65214 41.4103 2.65214 41.4103 2.65214 41.4417C2.64851 41.4665 2.64851 41.4916 2.65214 41.5163C2.65892 41.542 2.66816 41.5669 2.67966 41.5909C2.68015 41.6 2.68015 41.6092 2.67966 41.6184C2.6945 41.6398 2.71169 41.6595 2.73076 41.6772C2.7625 41.7086 2.79984 41.734 2.84082 41.7518H2.86834C2.9103 41.7707 2.956 41.78 3.00199 41.7793H41.1318C41.1777 41.7797 41.2232 41.7703 41.2654 41.7518H41.2929C41.3339 41.734 41.3712 41.7086 41.403 41.6772C41.422 41.6595 41.4392 41.6398 41.4541 41.6184C41.4536 41.6092 41.4536 41.6 41.4541 41.5909C41.4656 41.5669 41.4748 41.542 41.4816 41.5163C41.4852 41.4916 41.4852 41.4665 41.4816 41.4417C41.4816 41.4417 41.4816 41.4417 41.4816 41.4103L41.5091 18.1136C41.5091 18.1136 41.5091 18.1136 41.5091 18.0861C41.5111 18.0705 41.5111 18.0546 41.5091 18.039C41.5108 18.0233 41.5108 18.0076 41.5091 17.9919C41.5047 17.9723 41.4966 17.9536 41.4855 17.937ZM35.7268 15.2795L39.7245 17.7211H35.7268V15.2795ZM35.7268 18.5061H39.7245L35.7268 20.9516V18.5061ZM22.0511 6.93039L27.2399 10.0981H16.8506L22.0511 6.93039ZM9.15778 21.2185V10.8832H34.9406V21.2185C34.9422 21.2833 34.9596 21.3467 34.9917 21.403L22.0511 29.3047L9.11455 21.403C9.14383 21.3459 9.15867 21.2826 9.15778 21.2185ZM8.3716 15.2795V17.7211H4.38174L8.3716 15.2795ZM8.3716 18.5061V20.9516L4.38174 18.5061H8.3716ZM3.37936 18.8162L21.3003 29.7718L3.37936 40.7312V18.8162ZM4.38174 41.0374L22.0511 30.235L39.7402 41.0374H4.38174ZM40.7229 40.7312L22.8059 29.7718L40.7229 18.8162V40.7312Z" fill="#0F6745"/>
<path d="M40.1175 7.96271C39.9004 7.96271 39.7244 8.13846 39.7244 8.35524V9.19918C39.7244 9.41596 39.9004 9.59171 40.1175 9.59171C40.3345 9.59171 40.5106 9.41596 40.5106 9.19918V8.35524C40.5106 8.13837 40.3345 7.96271 40.1175 7.96271Z" fill="#0F6745"/>
<path d="M40.1175 11.3424C39.9004 11.3424 39.7244 11.5182 39.7244 11.7349V12.5789C39.7244 12.7957 39.9004 12.9714 40.1175 12.9714C40.3345 12.9714 40.5106 12.7957 40.5106 12.5789V11.7349C40.5106 11.5181 40.3345 11.3424 40.1175 11.3424Z" fill="#0F6745"/>
<path d="M42.2284 10.0706H41.3911C41.1741 10.0706 40.998 10.2464 40.998 10.4632C40.998 10.6799 41.1741 10.8557 41.3911 10.8557H42.2324C42.448 10.8535 42.6215 10.6785 42.6215 10.4632C42.6215 10.2463 42.4455 10.0706 42.2284 10.0706Z" fill="#0F6745"/>
<path d="M38.8479 10.0706H38.0027C37.7856 10.0706 37.6096 10.2464 37.6096 10.4632C37.6096 10.6799 37.7856 10.8557 38.0027 10.8557H38.8479C39.0649 10.8557 39.2409 10.6799 39.2409 10.4632C39.2409 10.2463 39.0649 10.0706 38.8479 10.0706Z" fill="#0F6745"/>
<path d="M2.66775 5.36023C2.45066 5.36023 2.27466 5.53598 2.27466 5.75276V6.57707C2.27466 6.79385 2.45066 6.9696 2.66775 6.9696C2.88483 6.9696 3.06084 6.79385 3.06084 6.57707V5.75276C3.06084 5.53589 2.88483 5.36023 2.66775 5.36023Z" fill="#0F6745"/>
<path d="M2.66775 8.72034C2.45066 8.72034 2.27466 8.89609 2.27466 9.11287V9.95289C2.27466 10.1697 2.45066 10.3454 2.66775 10.3454C2.88483 10.3454 3.06084 10.1697 3.06084 9.95289V9.11287C3.06084 8.89599 2.88483 8.72034 2.66775 8.72034Z" fill="#0F6745"/>
<path d="M4.77876 7.45245H3.93362C3.71653 7.45245 3.54053 7.62821 3.54053 7.84499C3.54053 8.06176 3.71653 8.23752 3.93362 8.23752H4.77876C4.99585 8.23752 5.17185 8.06176 5.17185 7.84499C5.17185 7.62811 4.99585 7.45245 4.77876 7.45245Z" fill="#0F6745"/>
<path d="M1.39815 7.45245H0.553002C0.335918 7.45245 0.159912 7.62821 0.159912 7.84499C0.159912 8.06176 0.335918 8.23752 0.553002 8.23752H1.39815C1.61523 8.23752 1.79124 8.06176 1.79124 7.84499C1.79124 7.62811 1.61523 7.45245 1.39815 7.45245Z" fill="#0F6745"/>
<path d="M14.4488 1.08557C14.2317 1.08557 14.0557 1.26133 14.0557 1.4781V2.31812C14.0557 2.53489 14.2317 2.71065 14.4488 2.71065C14.6658 2.71065 14.8418 2.53489 14.8418 2.31812V1.4781C14.8418 1.26123 14.6658 1.08557 14.4488 1.08557Z" fill="#0F6745"/>
<path d="M14.4488 4.46124C14.2317 4.46124 14.0557 4.637 14.0557 4.85377V5.69772C14.0557 5.91449 14.2317 6.09025 14.4488 6.09025C14.6658 6.09025 14.8418 5.91449 14.8418 5.69772V4.85377C14.8418 4.637 14.6658 4.46124 14.4488 4.46124Z" fill="#0F6745"/>
<path d="M16.5634 3.19348H15.7183C15.5012 3.19348 15.3252 3.36924 15.3252 3.58601C15.3252 3.80279 15.5012 3.97854 15.7183 3.97854H16.5634C16.7805 3.97854 16.9565 3.80279 16.9565 3.58601C16.9565 3.36914 16.7805 3.19348 16.5634 3.19348Z" fill="#0F6745"/>
<path d="M13.1831 3.19348H12.3379C12.1208 3.19348 11.9448 3.36924 11.9448 3.58601C11.9448 3.80279 12.1208 3.97854 12.3379 3.97854H13.1831C13.4001 3.97854 13.5761 3.80279 13.5761 3.58601C13.5761 3.36914 13.4001 3.19348 13.1831 3.19348Z" fill="#0F6745"/>
<path d="M33.7456 6.27486C33.446 6.2727 33.2014 6.51342 33.1992 6.81262C33.1971 7.11183 33.4381 7.35608 33.7378 7.35824C33.739 7.35824 33.7404 7.35824 33.7417 7.35824C34.0398 7.35824 34.282 7.11811 34.2842 6.82047C34.2863 6.52127 34.0453 6.27701 33.7456 6.27486Z" fill="#0F6745"/>
<path d="M42.7788 14.781C42.7763 14.781 42.7736 14.7809 42.771 14.7809C42.4745 14.7809 42.2329 15.0187 42.2286 15.3147C42.2242 15.6138 42.4635 15.8599 42.7631 15.8642C43.0626 15.8685 43.309 15.6295 43.3133 15.3304C43.3176 15.0313 43.0784 14.7853 42.7788 14.781Z" fill="#0F6745"/>
<path d="M25.6557 1.77655C25.356 1.77665 25.1133 2.01923 25.1133 2.31834C25.1134 2.61755 25.3563 2.85994 25.6559 2.85994C25.6598 2.85994 25.6636 2.85994 25.6675 2.85984C25.9634 2.85552 26.2004 2.61362 26.1982 2.31815C26.1981 2.01894 25.9552 1.77645 25.6557 1.77655Z" fill="#0F6745"/>
<path d="M8.70163 2.34955C8.70163 2.05035 8.4588 1.80786 8.15916 1.80786C7.85953 1.80786 7.6167 2.05045 7.6167 2.34955C7.6167 2.64876 7.85953 2.89125 8.15916 2.89125C8.16044 2.89125 8.16182 2.89125 8.1631 2.89125C8.46047 2.89125 8.70163 2.65053 8.70163 2.35348C8.70163 2.35211 8.70163 2.35083 8.70163 2.34955Z" fill="#0F6745"/>
<path d="M4.78274 12.5789C4.78146 12.5789 4.78008 12.5789 4.77881 12.5789C4.48075 12.5789 4.2385 12.819 4.23634 13.1167C4.23418 13.4159 4.47524 13.6601 4.77488 13.6623C5.07451 13.6645 5.31911 13.4237 5.32127 13.1245C5.32343 12.8253 5.08227 12.5811 4.78274 12.5789Z" fill="#0F6745"/>
<path d="M42.2364 1.86676C42.2337 1.86676 42.2311 1.86676 42.2285 1.86676C41.9289 1.86676 41.686 2.10925 41.686 2.40845C41.686 2.70766 41.9289 2.95015 42.2285 2.95015C42.5281 2.95015 42.771 2.70766 42.771 2.40845C42.7731 2.11141 42.5338 1.86892 42.2364 1.86676Z" fill="#0F6745"/>
<rect x="10.8716" y="12.8399" width="22.8975" height="0.981328" rx="0.490664" fill="#0F6745"/>
<rect x="10.8716" y="14.5082" width="9.23762" height="0.981329" rx="0.490664" fill="#0F6745"/>
<rect x="10.8716" y="17.6484" width="22.8975" height="0.981323" rx="0.490662" fill="#0F6745"/>
<rect x="10.8716" y="19.3167" width="22.8975" height="0.981327" rx="0.490664" fill="#0F6745"/>
</g>
<defs>
<clipPath id="clip0">
<rect x="0.159912" y="0.991333" width="43.1533" height="41.987" fill="white"/>
</clipPath>
</defs>
</svg>
