<svg width="45" height="43" viewBox="0 0 45 43" fill="none" xmlns="http://www.w3.org/2000/svg">
<path d="M31.1902 0.965454C30.8833 0.965454 30.6344 1.20045 30.6344 1.49029C30.6344 5.7046 27.004 9.1332 22.5417 9.1332C18.0793 9.1332 14.4489 5.7046 14.4489 1.49029C14.4489 1.35114 14.3903 1.21762 14.2861 1.11921C14.1819 1.02081 14.0405 0.965454 13.8932 0.965454C13.7542 0.965454 0 1.07155 0 10.2536V18.8975C0 19.1099 0.135675 19.3016 0.343802 19.3826L7.08199 22.0068C7.09131 22.0104 7.10105 22.0089 7.11048 22.0121V42.4277C7.11048 42.7175 7.35931 42.9525 7.66621 42.9525H36.7919C37.0988 42.9525 37.3477 42.7175 37.3477 42.4277V22.0122C37.3571 22.009 37.3668 22.0104 37.3761 22.0068L44.1143 19.3826C44.3225 19.3016 44.4581 19.1099 44.4581 18.8975V10.2536C44.4581 1.07155 31.3228 0.965454 31.1902 0.965454ZM36.2362 32.882H8.22193V23.7138H36.2362V32.882ZM8.22193 41.9028V33.9317H36.2362V41.9028H8.22193ZM37.3477 20.8826V17.323C37.3477 17.0331 37.0988 16.7981 36.7919 16.7981C36.485 16.7981 36.2362 17.0331 36.2362 17.323V22.6641H8.22193V17.323C8.22193 17.0331 7.9731 16.7981 7.66621 16.7981C7.35931 16.7981 7.11048 17.0331 7.11048 17.323V20.8826L1.11145 18.5461V13.4959H43.3467V18.5461L37.3477 20.8826ZM43.3467 12.4462H1.11145V10.2536C1.11145 3.09016 10.9257 2.15453 13.3551 2.03306C13.6527 6.57437 17.6595 10.1829 22.5417 10.1829C27.4238 10.1829 31.4306 6.57463 31.7282 2.03332C32.7518 2.08611 35.083 2.29112 37.3805 3.08735C41.3392 4.45914 43.3467 6.87036 43.3467 10.2536V12.4462Z" fill="#D33227"/>
</svg>
