<?xml version="1.0" encoding="UTF-8"?>
<svg width="40px" height="40px" viewBox="0 0 40 40" version="1.1" xmlns="http://www.w3.org/2000/svg" xmlns:xlink="http://www.w3.org/1999/xlink">
    <!-- Generator: Sketch 53.2 (72643) - https://sketchapp.com -->
    <title>Group 6</title>
    <desc>Created with Sketch.</desc>
    <g id="Page-1" stroke="none" stroke-width="1" fill="none" fill-rule="evenodd">
        <g id="Artboard" transform="translate(-29.000000, -123.000000)">
            <g id="Group-6" transform="translate(29.000000, 123.000000)">
                <rect id="Rectangle" fill="#CFFFF1" x="0" y="0" width="40" height="40" rx="5"></rect>
                <path d="M12.4390244,14.2160279 C10.7327788,14.2160279 9.3495935,15.5888133 9.3495935,17.28223 L9.3495935,18.815331 C9.3495935,20.5087477 10.7327788,21.8815331 12.4390244,21.8815331 L21.7073171,21.8815331 C23.4135626,21.8815331 24.796748,20.5087477 24.796748,18.815331 L24.796748,17.28223 C24.796748,15.5888133 23.4135626,14.2160279 21.7073171,14.2160279 L12.4390244,14.2160279 Z M12.4390244,12.6829268 L21.7073171,12.6829268 C24.2666854,12.6829268 26.3414634,14.742105 26.3414634,17.28223 L26.3414634,18.815331 C26.3414634,21.355456 24.2666854,23.4146341 21.7073171,23.4146341 L12.4390244,23.4146341 C9.87965604,23.4146341 7.80487805,21.355456 7.80487805,18.815331 L7.80487805,17.28223 C7.80487805,14.742105 9.87965604,12.6829268 12.4390244,12.6829268 Z" id="Rectangle" fill="#1EC192" fill-rule="nonzero"></path>
                <path d="M18.2926829,18.1184669 C16.5864374,18.1184669 15.203252,19.4912523 15.203252,21.184669 L15.203252,22.71777 C15.203252,24.4111867 16.5864374,25.7839721 18.2926829,25.7839721 L27.5609756,25.7839721 C29.2672212,25.7839721 30.6504065,24.4111867 30.6504065,22.71777 L30.6504065,21.184669 C30.6504065,19.4912523 29.2672212,18.1184669 27.5609756,18.1184669 L18.2926829,18.1184669 Z M18.2926829,16.5853659 L27.5609756,16.5853659 C30.120344,16.5853659 32.195122,18.644544 32.195122,21.184669 L32.195122,22.71777 C32.195122,25.257895 30.120344,27.3170732 27.5609756,27.3170732 L18.2926829,27.3170732 C15.7333146,27.3170732 13.6585366,25.257895 13.6585366,22.71777 L13.6585366,21.184669 C13.6585366,18.644544 15.7333146,16.5853659 18.2926829,16.5853659 Z" id="Rectangle-Copy" fill="#1EC192" fill-rule="nonzero"></path>
            </g>
        </g>
    </g>
</svg>