<?xml version="1.0" encoding="UTF-8"?>
<svg width="500px" height="500px" viewBox="0 0 500 500" version="1.1" xmlns="http://www.w3.org/2000/svg" xmlns:xlink="http://www.w3.org/1999/xlink">
    <!-- Generator: Sketch 59.1 (86144) - https://sketch.com -->
    <title>Artboard</title>
    <desc>Created with Sketch.</desc>
    <g id="Artboard" stroke="none" stroke-width="1" fill="none" fill-rule="evenodd">
        <rect fill="#F5F7F9" x="0" y="0" width="500" height="500"></rect>
        <g id="Group" transform="translate(60.000000, 59.000000)" fill-rule="nonzero">
            <path d="M189.295242,0 L331.823424,0 C358.547458,0 379.703985,21.2871229 379.703985,48.1761201 L379.703985,191.584106 C379.703985,296.899345 295.077877,382.047836 190.408743,382.047836 L189.295242,382.047836 C84.626108,382.047836 0,296.899345 0,191.584106 C0,86.2688663 84.626108,1.12037489 189.295242,0 Z" id="Path" fill="#25C16F"></path>
            <path d="M189.840372,84.3786633 C142.038212,84.3786633 103.129477,123.442859 103.129477,171.436014 L103.129477,230.590368 C103.129477,246.216046 116.469615,259.609485 132.033109,259.609485 L156.490028,259.609485 L156.490028,191.526172 L123.139684,191.526172 L123.139684,172.552134 C124.251362,134.604058 156.490028,105.584941 193.175406,107.817181 C228.749107,108.933301 256.54106,137.952418 257.652738,172.552134 L257.652738,191.526172 L224.302394,191.526172 L224.302394,259.609485 L246.535957,259.609485 L246.535957,260.725605 C246.535957,275.235163 234.307497,287.512482 219.855681,287.512482 L193.175406,287.512482 C190.95205,287.512482 188.728694,288.628602 188.728694,290.860842 C188.728694,293.093082 190.95205,295.325321 193.175406,295.325321 L219.855681,295.325321 C238.75421,295.325321 254.317704,279.699643 254.317704,260.725605 L254.317704,258.493365 C267.657841,255.145006 276.551266,243.983807 276.551266,230.590368 L276.551266,172.552134 C277.662944,123.442859 238.75421,84.3786633 189.840372,84.3786633 L189.840372,84.3786633 Z" id="Path" fill="#FFFFFF"></path>
        </g>
    </g>
</svg>