<svg width="62" height="26" viewBox="0 0 62 26" fill="none" xmlns="http://www.w3.org/2000/svg">
<g clip-path="url(#clip0)">
<path d="M57.5044 0L62 3.15031L57.5044 6.30061L33.541 6.30061H30.8827L2.11097 6.30061C0.938209 6.30061 0 5.34356 0 4.14724L0 2.15337C0 0.957055 0.938209 0 2.11097 0L57.5044 0Z" fill="#F6891F"/>
<path d="M57.5044 0L62 3.15031L57.5044 6.30062L56.8398 4.70552L57.5044 3.15031L56.8398 1.55522L57.5044 0Z" fill="#F9B5A5"/>
<path d="M56.8402 1.55534L57.5047 3.11056L56.8402 4.66577L34.0104 4.66577L31.3522 4.66577L3.51861 4.66577C3.47952 4.46638 3.44043 4.267 3.44043 4.06761L3.44043 2.07375C3.44043 1.87436 3.47952 1.67497 3.51861 1.47559L32.3686 1.47559L34.2841 1.47559L34.7141 1.47559L56.8402 1.55534Z" fill="#FAA31B"/>
<path d="M2.11097 0L3.55738 0L3.55738 6.30061L2.11097 6.30061C0.938209 6.30061 0 5.34356 0 4.14724L0 2.15337C0 0.957055 0.938209 0 2.11097 0Z" fill="#BB2629"/>
<path d="M60.2413 1.91431L62.0005 3.1505L60.2413 4.3867C60.1241 4.0278 60.085 3.58915 60.085 3.1505C60.085 2.71185 60.1241 2.2732 60.2413 1.91431Z" fill="#162B4D"/>
<path d="M4.49559 9.84973L0 13L4.49559 16.1503L28.459 16.1503H31.1173L59.889 16.1503C61.0618 16.1503 62 15.1933 62 13.997V12.0031C62 10.8068 61.0618 9.84973 59.889 9.84973L4.49559 9.84973Z" fill="#365CAA"/>
<path d="M4.49559 9.84973L4.76837e-07 13L4.49559 16.1503L5.16016 14.5553L4.49559 13L5.16016 11.4049L4.49559 9.84973Z" fill="#F9B5A5"/>
<path d="M5.15981 11.4048L4.49524 12.96L5.15981 14.5153L27.9896 14.5153H30.6478L58.4814 14.5153C58.5205 14.3159 58.5596 14.1165 58.5596 13.9171V11.9232C58.5596 11.7238 58.5205 11.5245 58.4814 11.3251L29.6314 11.3251H27.7159H27.2859L5.15981 11.4048Z" fill="#1649A0"/>
<path d="M59.889 9.84973H58.4426V16.1503H59.889C61.0618 16.1503 62 15.1933 62 13.997V12.0031C62 10.8068 61.0618 9.84973 59.889 9.84973Z" fill="#FAA31B"/>
<path d="M1.75867 11.764L-0.000482678 13.0002L1.75867 14.2364C1.87594 13.8775 1.91504 13.4389 1.91504 13.0002C1.91504 12.5616 1.87594 12.1229 1.75867 11.764Z" fill="#162B4D"/>
<path d="M57.5044 19.6995L62 22.8498L57.5044 26.0001H33.541H30.8827L2.11097 26.0001C0.938209 26.0001 0 25.043 0 23.8467L0 21.8528C0 20.6565 0.938209 19.6995 2.11097 19.6995L57.5044 19.6995Z" fill="#8E0F1B"/>
<path d="M57.5044 19.6995L62 22.8498L57.5044 26.0001L56.8398 24.405L57.5044 22.8498L56.8398 21.2547L57.5044 19.6995Z" fill="#F9B5A5"/>
<path d="M56.8402 21.2546L57.5047 22.8098L56.8402 24.365L34.0104 24.365H31.3522L3.51861 24.365C3.47952 24.1656 3.44043 23.9662 3.44043 23.7668L3.44043 21.773C3.44043 21.5736 3.47952 21.3742 3.51861 21.1748L32.3686 21.1748H34.2841H34.7141L56.8402 21.2546Z" fill="#BB2629"/>
<path d="M2.11097 19.6995H3.55738L3.55738 26.0001H2.11097C0.938209 26.0001 0 25.043 0 23.8467L0 21.8528C0 20.6565 0.938209 19.6995 2.11097 19.6995Z" fill="#284C98"/>
<path d="M60.2413 21.6138L62.0005 22.85L60.2413 24.0862C60.1241 23.7273 60.085 23.2886 60.085 22.85C60.085 22.4113 60.1241 21.9727 60.2413 21.6138Z" fill="#162B4D"/>
</g>
<defs>
<clipPath id="clip0">
<rect width="62" height="26" fill="white"/>
</clipPath>
</defs>
</svg>
