<svg width="1790" height="1199" viewBox="0 0 1790 1199" fill="none" xmlns="http://www.w3.org/2000/svg">
<g clip-path="url(#clip0)">
<path d="M1801.5 -0.5H0V1199.5H1801.5V-0.5Z" fill="#344564"/>
<g opacity="0.75">
<path opacity="0.75" d="M-114.1 311C-2.10039 248.8 114.6 193.4 238.3 160.6C362 127.8 493.7 118 618.4 147.1C773.2 183.2 912.1 277.2 1069.8 297.7C1251.9 321.4 1430.6 244 1595.7 163.8C1652.3 136.3 1708.7 108.2 1764.8 79.5999C1798.9 62.1999 1838.5 33.7999 1831 -3.70009C1823.3 -42.6001 1773.1 -52.6001 1733.5 -54.1001C1544.6 -61.5001 1355.8 -68.8001 1166.9 -76.2001C969.4 -83.9001 771.8 -91.6001 574.2 -90.5001C340.2 -89.1001 106.3 -75.4001 -126.2 -49.3001C-133.7 -48.5001 -141.4 -47.5001 -148 -43.9001C-169.9 -31.7001 -166.7 0.299911 -160.3 24.4999C-131.4 133 -97.0004 240 -57.2004 344.9" fill="#231F20"/>
</g>
<g opacity="0.75">
<path opacity="0.75" d="M1647.2 -47.5C1642.5 -56.2 1637 -65.4 1627.9 -69.1C1621.5 -71.7 1614.3 -71.1999 1607.4 -70.6999C1373 -52.7999 1138.6 -34.9 904.1 -17C934.3 89.9001 916.1 215.6 836.4 293C798.8 329.6 750.6 353.2 702.4 374.2C579.8 427.7 451.7 468.7 320.8 496.2C234 514.4 144.7 527.3 64.9998 566C-5.0002 600 -67.9002 659.3 -88.7002 733C-43.1002 786.7 2.3998 840.4 47.9998 894.1C50.4998 897.1 53.2998 900.2 57.1998 900.9C61.3998 901.7 65.3998 899.4 69.0998 897.2C249.4 788.7 459.5 739.2 668.6 715.3C877.7 691.4 1088.8 691.7 1298.6 674.4C1407.7 665.4 1523.7 648.7 1606.4 577C1687 507.1 1721 396.1 1725.1 289.5C1729.5 173 1702.3 55.3 1647.2 -47.5Z" fill="#253858"/>
</g>
<path d="M749.3 696L726.5 613.7L693.7 613.9L682.7 638.5L650 636.8L648.9 582.6L604.5 582.2L600.8 614.9L576.4 602L575.1 439.6L535 429.8L531.4 462.5L476.5 477.1L476.3 519.6L418.2 522.4L413 435.2L357.3 428.4L319.9 523.6L286.1 534.9L244.2 559.8L211.5 558.1L203.4 490.1L170.4 492.2L166.3 534.5L135.4 532.9L129.8 455.3L52.3996 457.2L27.2996 568L-16.8004 561.8L-27.9004 627L756.8 702.2" fill="#262262"/>
<g opacity="0.75">
<path opacity="0.75" d="M-40.2008 608.4C-35.6008 565 -16.6008 523.2 12.9992 491.1C39.9992 461.9 74.6992 441.2 109.899 422.5C186.599 381.7 267.699 348.6 339.899 300.3C412.099 252 476.499 185.2 499.699 101.6C512.599 55.2003 512.199 6.3003 510.699 -41.6997C356.899 -45.8997 202.899 -42.3997 49.4992 -31.2997C92.8992 33.0003 100.299 117.4 80.0992 192.3C59.8992 267.2 14.2992 333.3 -40.1008 388.7C-55.8008 404.7 -73.6008 423.2 -71.7008 445.5C-70.3008 461.3 -59.2008 474.3 -50.3008 487.4C-28.2008 520.2 -18.2008 560.8 -22.5008 600.1" fill="#253858"/>
</g>
<path d="M-31 618.1L298.6 620.4L386 645.1L579.5 651.1L720.5 679.6L893 690.1L1056.5 736.6L612.5 810.1L243.5 807.1L-23.5 711.1L-31 618.1Z" fill="#E44D33"/>
<path d="M1100.2 715.3L1127.2 634.2L1160 636.2L1169.7 661.3H1202.5L1206.3 607.2L1250.7 609.1L1252.7 642L1277.8 630.4L1287.4 468.2L1327.9 460.5L1329.9 493.3L1383.9 510.7L1382 553.2L1439.9 559L1449.5 472.1L1505.5 468.2L1537.9 565.2L1571.1 578.3L1611.6 605.3H1644.5L1656 537.7L1688.9 541.6L1690.8 584H1721.7L1731.3 506.8L1808.5 512.6L1827.8 624.6L1872.2 620.7L1879.9 686.3L1092.5 721.1" fill="#8E0F1B"/>
<path d="M576.5 809.801L1017.5 716.801L1497.5 674.801L1833.6 680.801V1031.9H570.5L576.5 809.801Z" fill="#D33227"/>
<path d="M1811.5 695H1491.5L1726.5 717L1702.5 751L1302.5 748L1214.5 780C1214.5 780 1311.5 781 1331.5 780C1351.5 779 1299.5 812 1299.5 812L1465.5 820C1465.5 820 1451.5 773 1454.5 777C1457.5 781 1609.5 779 1609.5 779L1562.5 866L1304.5 850L1496.5 918L1464.5 979L1561.5 1008L1719.5 966L1813.5 767L1811.5 695Z" fill="#E44D33"/>
<g opacity="0.5">
<path opacity="0.5" d="M1854.1 717.7C1823 707.6 1790.5 701.8 1758 697.9C1608.9 680.2 1457.8 702.2 1310.8 732.7C1163.8 763.2 1018.2 802 869 818.5C922.2 852.8 985.6 868.1 1048.2 879.8C1133.3 895.6 1219.5 905.8 1306 910.1C1324 911 1342.2 911.7 1359.6 916.4C1381.2 922.3 1400.6 934.2 1420.2 944.9C1452.3 962.4 1486 977 1520.8 988.5C1529.1 991.2 1538.4 993.8 1546.4 990.3C1552.5 987.6 1556.6 981.9 1560.5 976.6C1597.1 926.9 1646.2 886.1 1702.4 858.9C1730.5 845.3 1760.2 835.1 1787.7 820.6C1798.7 814.8 1809.5 808.2 1817.9 799.1C1842.3 772.7 1840.6 732.7 1837.5 697.2" fill="#E44D33"/>
</g>
<path d="M-59.6006 678.301L387.399 729.301L435.399 786.301L711.499 801.301L822.499 789.301L1020.5 807.301L1086.5 876.301L1392.5 897.301L1500.5 978.301L1617.6 1020.3L1737.6 999.301L1812.6 1005.3V1200H-68.6006L-59.6006 678.301Z" fill="#ED6A51"/>
<path d="M1814.1 1023L1733.4 1016.3L1556.1 1051L1748.8 1040.3L1674.1 1069C1674.1 1069 1760.1 1077 1762.1 1077C1764.1 1077 1634.8 1107.7 1634.8 1107.7L1788.1 1095L1791.4 1124.3L1807.4 1123L1814.1 1023Z" fill="#F15F38"/>
<path d="M1118.8 1003L1205.5 975.701L1121.5 944.301L1436.8 964.301L1314.8 987.701L1355.5 1011.7L1118.8 1003Z" fill="#F15F38"/>
<path d="M-59.6006 788.301L387.399 839.301L435.399 896.301L711.499 911.301L822.499 899.301L1020.5 917.301L1086.5 986.301L1392.5 1007.3L1500.5 1088.3L1617.6 1130.3L1737.6 1109.3L1812.6 1115.3V1310H-68.6006L-59.6006 788.301Z" fill="#F15F38"/>
<g opacity="0.3">
<path opacity="0.3" d="M-116.7 751.699C-13.4002 716.699 100.2 728.899 205.6 756.699C311 784.499 412.1 827.199 517.9 853.599C678.6 893.699 848.8 894.899 1010 857.099C919.2 917.999 813.8 954.699 706.5 975.599C599.2 996.399 489.5 1002 380.2 1004.6C228.8 1008.3 74.5998 1006.1 -69.6002 959.799C-73.3002 958.599 -77.1002 957.299 -79.6002 954.399C-83.2002 950.299 -83.1002 944.199 -82.9002 938.799C-79.4002 860.299 -75.8002 781.799 -72.3002 703.199" fill="#BB2629"/>
</g>
<path d="M959 1204.6L987.5 1123.6L1112 1122.1L1118 1053.1C1118 1053.1 1247 1054.6 1248.5 1062.1C1250 1069.6 1257.5 1117.6 1257.5 1117.6L1310 1120.6L1326.5 924.1L1428.5 915.1L1485.5 1017.1H1511L1544 811.6L1710.5 795.1L1730 735.1L1833.5 744.1V1213.6L959 1204.6Z" fill="#D33227"/>
<g opacity="0.3">
<path opacity="0.3" d="M-104.101 988.701C98.6994 1078.7 329.599 1086.2 549.399 1056.6C769.199 1026.9 982.499 962.001 1198.6 911.701C1414.7 861.401 1638.1 825.401 1857.9 854.801C1865.8 855.901 1874.5 857.401 1879.7 863.501C1884.6 869.301 1885 877.501 1885.1 885.001C1887.5 999.101 1889.8 1113.3 1892.2 1227.4C1892.4 1237.2 1892.2 1248.3 1885.2 1255.2C1880 1260.4 1872.3 1261.9 1865.1 1263.2C1802.7 1274 1739.5 1278.7 1676.4 1283.2C1157.6 1319.9 637.399 1336 117.299 1331.5C60.5994 1331 -6.60059 1324.3 -34.3006 1274.9C-45.0006 1255.8 -47.5006 1233.4 -49.4006 1211.6C-58.2006 1110.9 -58.5006 1009.5 -50.1006 908.801" fill="#BB2629"/>
</g>
<path d="M991.8 1235.1L1018.7 1158.7L1136.2 1157.3L1141.9 1092.2C1141.9 1092.2 1263.6 1093.6 1265 1100.7C1266.4 1107.8 1273.5 1153.1 1273.5 1153.1L1323 1155.9L1338.6 970.5L1434.8 962L1488.6 1058.2H1512.7L1543.8 864.3L1700.9 848.7L1719.3 792.1L1817 800.6V1243.6L991.8 1235.1Z" fill="#BB2629"/>
<path d="M1065.8 1254L1089.7 1186L1194.3 1184.7L1199.3 1126.7C1199.3 1126.7 1307.7 1128 1308.9 1134.3C1310.2 1140.6 1316.5 1180.9 1316.5 1180.9L1360.6 1183.4L1374.5 1018.3L1460.2 1010.7L1508.1 1096.4H1529.5L1557.2 923.8L1697.1 909.9L1713.5 859.5L1800.4 867.1V1261.5L1065.8 1254Z" fill="#8E0F1B"/>
<path d="M-24.5 785L185.5 811L197.5 909L255.5 919L273.5 1065H411.5L439.5 1203H-22.5L-24.5 797V785Z" fill="#D33227"/>
<path d="M-24.5 848L153.8 870.1L164 953.3L213.3 961.8L228.5 1085.8H345.7L369.5 1203H-22.8L-24.5 858.2V848Z" fill="#BB2629"/>
<path d="M-24.5 921L117.2 938.5L125.2 1004.7L164.4 1011.4L176.5 1109.9H269.6L288.5 1203H-23.2L-24.5 929.1V921Z" fill="#8E0F1B"/>
<path d="M1691.7 279.5C1833.03 279.5 1947.6 165.019 1947.6 23.7996C1947.6 -117.42 1833.03 -231.9 1691.7 -231.9C1550.37 -231.9 1435.8 -117.42 1435.8 23.7996C1435.8 165.019 1550.37 279.5 1691.7 279.5Z" fill="#1649A0"/>
<path d="M1896.8 164.101C1895.8 159.801 1896.7 155.301 1896.5 150.901C1896.1 142.501 1891.8 133.301 1896.3 126.201C1899.9 120.501 1908.3 118.101 1909.7 111.501C1910.2 109.001 1909.5 106.401 1908.9 103.901C1904.8 88.9006 1900.7 74.0006 1896.6 59.0006C1894.9 52.8006 1892.4 45.7006 1886.2 43.8006C1880.6 42.0006 1874.6 45.7006 1870.5 49.9006C1866.3 54.1006 1862.6 59.2006 1857.2 61.4006C1851.6 63.6006 1845.4 62.5006 1839.5 61.3006C1830.6 59.5006 1821.5 57.6006 1813.5 53.4006C1799.5 102.401 1770.9 146.801 1730.8 180.001C1728.7 183.801 1726.6 187.601 1726.8 191.901C1727 197.001 1730.4 201.401 1731.1 206.501C1731.6 210.401 1730.4 214.401 1729.8 218.301C1728.1 228.501 1730.2 239.401 1735.6 248.201C1720.3 248.801 1706.8 238.801 1695.9 228.101C1690.7 223.001 1685.7 217.501 1680.4 212.601C1674.4 215.501 1668.2 218.301 1661.9 220.801C1626.7 234.801 1590.2 240.401 1554.6 238.601C1621.7 281.701 1707.9 293.001 1787.7 261.301C1835.6 242.301 1874.6 210.401 1902.3 171.201C1899.7 170.001 1897.5 167.001 1896.8 164.101Z" fill="#365CAA"/>
<path d="M1732.5 176.9C1741 161 1741 142.1 1740.8 124C1740.7 112.7 1738.4 98.5001 1727.5 95.6001C1715.9 92.5001 1704.4 105.8 1692.9 102.3C1688.2 100.9 1684.6 96.8001 1679.9 95.4001C1666.2 91.2001 1653 110.7 1639.5 105.7C1636.3 104.5 1633.7 102.1 1630.6 100.8C1625.2 98.7001 1619.1 100.4 1613.6 102.3C1599.5 107 1585.7 112.5 1572.2 118.6C1567.7 120.6 1561.9 122.6 1558.3 119.2C1556.3 117.3 1555.7 114.3 1553.6 112.5C1550.7 109.9 1546 110.8 1542.5 108.9C1534.8 104.6 1539 90.9001 1531.9 85.6001C1525.9 81.0001 1516.8 86.3001 1509.7 83.5001C1503.7 81.1001 1501.4 72.9001 1504.5 67.3001C1507.6 61.7001 1515 59.2001 1521.2 60.9001C1525 61.9001 1528.4 64.3001 1532.3 65.3001C1536.2 66.3001 1541.1 65.2001 1542.5 61.4001C1543.1 59.7001 1542.9 57.9001 1542.6 56.1001C1539 26.3001 1549.4 -4.79991 1570.1 -26.4999C1574.3 -30.8999 1579 -38.2999 1574.4 -42.2999C1568.5 -47.2999 1559.2 -36.5999 1552.3 -40.2999C1552.6 -47.5999 1560.5 -51.8999 1567.5 -54.1999C1574.5 -56.4999 1582.6 -58.8999 1585.4 -65.6999C1576.7 -66.1999 1568.7 -73.0999 1566.9 -81.6999C1566.5 -83.7999 1566.3 -86.0999 1564.7 -87.4999C1562 -89.9999 1557.8 -87.9999 1554.2 -88.2999C1546.7 -88.8999 1539.6 -99.3999 1534 -94.2999C1532 -92.4999 1531.8 -89.5999 1531.6 -86.8999C1530.3 -72.0999 1524.4 -57.6999 1514.9 -46.1999C1514.1 -45.2999 1513.3 -44.2999 1512.1 -44.0999C1509.1 -43.4999 1507.6 -47.3999 1505.6 -49.7999C1502.9 -53.0999 1498.2 -53.7999 1494.3 -55.5999C1490.4 -57.2999 1486.7 -61.9999 1489 -65.5999C1490.4 -67.7999 1493.3 -68.3999 1495.5 -69.7999C1506.3 -76.9999 1492 -95.8999 1499.3 -106.6C1506.6 -117.3 1528.8 -110.3 1532.6 -122.7C1533.6 -126 1532.7 -129.5 1532.7 -132.9C1532.6 -144.7 1542.4 -153.8 1551.5 -161.3C1554.5 -163.8 1557.7 -166.4 1561.5 -167.3C1571.2 -169.6 1579.9 -160.1 1583.2 -150.6C1586.5 -141.1 1587.1 -130.5 1592.9 -122.4C1598.8 -114.3 1613.4 -111.6 1617.8 -120.5C1620.5 -126 1617.9 -132.8 1619.3 -138.8C1620.4 -143.4 1623.8 -147.1 1627 -150.5C1636.9 -161 1646.9 -171.5 1656.8 -182C1660.1 -185.5 1663.5 -189.1 1667.7 -191.5C1674.4 -195.4 1682.6 -195.9 1689.7 -199.2C1696.8 -202.4 1703 -210.6 1699.6 -217.6C1695.5 -226 1683.4 -224.2 1674.1 -223.4C1664.7 -222.6 1655.2 -224.4 1645.8 -224.5C1617.5 -224.7 1591.4 -210.2 1566.9 -196.1C1548.6 -185.6 1530.2 -175 1513.7 -161.9C1454.6 -114.9 1424.4 -34.0999 1438.2 40.2001L1436.5 31.9001C1438.8 76.9001 1475.5 117.8 1520.1 124.8C1531.2 126.6 1542.9 126.5 1552.9 131.7C1557.7 134.2 1562.7 138 1568 136.9C1570.9 136.3 1573.3 134.3 1576.1 133.8C1581.9 132.6 1587.3 137.6 1589.5 143.1C1591.7 148.6 1591.8 154.7 1593.4 160.4C1598.3 177.5 1616.1 187.7 1633.4 192C1642.6 194.3 1652.1 195.4 1660.8 199.2C1668.1 202.4 1674.4 207.3 1680.2 212.7C1698.6 203.7 1715.4 192.7 1730.6 180.1C1731.4 179 1732 177.9 1732.5 176.9Z" fill="#068A5B"/>
<path d="M1735.6 248.2C1730.2 239.3 1728.1 228.5 1729.8 218.3C1730.4 214.4 1731.6 210.4 1731.1 206.5C1730.4 201.5 1727 197 1726.8 191.9C1726.6 187.6 1728.7 183.8 1730.8 180C1715.6 192.6 1698.7 203.6 1680.4 212.6C1685.7 217.6 1690.8 223 1695.9 228.1C1706.8 238.8 1720.4 248.8 1735.6 248.2Z" fill="#068A5B"/>
<path d="M1805.3 -61.3992C1795.1 -42.6992 1784.6 -20.4992 1793.2 -0.899216C1795.3 4.00079 1798.6 8.60077 1798.4 13.9008C1798.2 17.1008 1796.8 20.1008 1796.1 23.2008C1793.7 33.7008 1800.2 44.7008 1809.1 50.8008C1810.5 51.8008 1812 52.6008 1813.5 53.4008C1825.4 11.9008 1826.9 -32.7992 1816.3 -76.6992C1811.7 -72.6992 1808.3 -66.8992 1805.3 -61.3992Z" fill="#068A5B"/>
<path d="M1902.9 -159.1C1895.2 -168.9 1885.6 -177.1 1875.6 -184.5C1860.4 -195.8 1844.2 -205.7 1827.2 -214C1806.3 -224.2 1781.4 -231.8 1760.3 -223.2C1835.4 -202.8 1900.2 -148.6 1931.1 -70.7997C1964.2 12.6003 1950.4 103 1902.3 171.2C1903.5 171.7 1904.7 171.9 1906 171.6C1908.9 171 1910.8 168.3 1912.5 165.8C1920 154.1 1926.4 141.8 1932.7 129.5C1939.3 116.6 1946.1 103.6 1949.2 89.4003C1952 76.9003 1951.8 64.0003 1951.7 51.1003C1951.2 10.1003 1950.7 -31.2997 1940.3 -70.9997C1936.3 -86.2997 1930.9 -101.3 1925.1 -116.1C1919.2 -131.2 1912.9 -146.3 1902.9 -159.1Z" fill="#068A5B"/>
<path d="M1931.2 -70.7992C1900.3 -148.599 1835.4 -202.799 1760.4 -223.199C1759.2 -222.699 1758 -222.199 1756.8 -221.499C1753.3 -213.599 1750.1 -205.399 1749.2 -197.099C1758.9 -187.399 1767.9 -176.799 1776 -165.399C1776.9 -165.599 1777.7 -165.799 1778.6 -166.199C1782.5 -167.799 1786.1 -170.899 1790.4 -170.599C1796.4 -170.299 1800 -162.999 1798.8 -157.099C1797.7 -151.699 1793.9 -147.399 1790.1 -143.399C1795.9 -133.199 1801.1 -122.499 1805.5 -111.299C1806.4 -108.999 1807.3 -106.599 1808.2 -104.299C1808.7 -104.399 1809.2 -104.399 1809.6 -104.499C1813.2 -105.099 1817.7 -105.999 1820 -103.099C1821.3 -101.499 1821.4 -99.1992 1822.1 -97.2992C1823.8 -92.4992 1829.5 -89.8992 1834.5 -90.6992C1839.5 -91.4992 1843.8 -94.9992 1846.7 -99.1992C1848.5 -101.799 1850.4 -105.099 1853.5 -105.299C1856.6 -105.499 1859.2 -102.499 1862.3 -102.299C1866.5 -101.899 1869.3 -106.199 1871.6 -109.699C1873.9 -113.199 1878.1 -116.799 1881.8 -114.699C1884.9 -112.899 1884.8 -108.299 1887.3 -105.599C1889.5 -103.099 1893.3 -102.899 1896.4 -101.599C1904.2 -98.1992 1905.5 -85.5992 1898.6 -80.5992C1895 -77.9992 1890.3 -77.5992 1885.9 -77.2992C1872.6 -76.2992 1859.1 -75.2992 1846.2 -78.5992C1839.6 -80.2992 1832.9 -83.0992 1826.2 -81.7992C1822.5 -81.0992 1819.4 -79.2992 1816.6 -76.7992C1827.2 -32.8992 1825.7 11.8008 1813.8 53.3008C1821.8 57.5008 1830.9 59.4008 1839.8 61.2008C1845.7 62.4008 1851.9 63.6008 1857.5 61.3008C1863 59.1008 1866.7 54.0008 1870.8 49.8008C1875 45.6008 1880.9 41.9008 1886.5 43.7008C1892.6 45.6008 1895.2 52.7008 1896.9 58.9008C1901 73.9008 1905.1 88.8008 1909.2 103.801C1909.9 106.301 1910.6 108.901 1910 111.401C1908.6 118.001 1900.2 120.401 1896.6 126.101C1892.1 133.201 1896.4 142.401 1896.8 150.801C1897 155.201 1896.1 159.701 1897.1 164.001C1897.8 167.001 1899.9 169.901 1902.6 171.101C1950.5 102.901 1964.3 12.5008 1931.2 -70.7992Z" fill="#068A5B"/>
<path d="M503 1200.6L512.2 998.7H559.9L569.1 782.2L684.7 773L697.5 925.3L787.5 941.8L813.2 1202.5L503 1200.6Z" fill="#D33227"/>
<path d="M541 1236.7L550.1 1034.8H597.9L607 818.3L722.7 809.1L735.5 961.4L825.4 977.9L851.1 1238.6L541 1236.7Z" fill="#BB2629"/>
<path d="M586.8 1197.5L593.3 1053.7H627.3L633.9 899.4L716.2 892.9L725.4 1001.4L789.4 1013.2L807.7 1198.8L586.8 1197.5Z" fill="#8E0F1B"/>
<path d="M868.291 464.993L868.292 475.338L919.211 475.343L919.21 464.998L868.291 464.993Z" fill="#1649A0"/>
<path d="M867.352 451.508C827.549 473.259 820.523 516.389 820.523 516.389C803.703 465.182 821.465 431.648 835.524 414.739C839.418 409.895 843.978 405.525 849.012 401.82L867.352 451.508Z" fill="#BE222F"/>
<path d="M867.352 451.508C827.549 473.259 820.523 516.389 820.523 516.389C820.428 515.724 817.29 488.839 844.078 459.201L835.428 414.834C839.323 409.99 843.883 405.62 848.917 401.915L867.352 451.508Z" fill="#8E0F1B"/>
<path d="M920.025 451.414C959.833 473.173 966.867 516.305 966.867 516.305C983.677 465.101 965.909 431.563 951.847 414.652C947.952 409.806 943.391 405.436 938.356 401.73L920.025 451.414Z" fill="#BE222F"/>
<path d="M920.024 451.413C959.832 473.172 966.866 516.303 966.866 516.303C966.961 515.638 970.093 488.753 943.3 459.11L951.941 414.746C948.045 409.9 943.485 405.53 938.449 401.824L920.024 451.413Z" fill="#8E0F1B"/>
<path d="M893.678 560.063C893.678 559.493 893.962 554.078 900.137 549.803C906.692 545.339 907.735 530.234 907.735 530.234L910.017 543.534C924.169 517.41 905.642 496.033 905.642 496.033L893.672 496.032L881.702 496.031C881.702 496.031 863.178 517.404 877.336 543.531L879.615 530.231C879.615 530.231 880.756 545.241 887.217 549.802C893.487 553.983 893.773 559.398 893.678 560.063Z" fill="#F1592B"/>
<path d="M893.714 231.093C792.645 361.426 868.276 464.984 868.276 464.984L893.737 464.987L919.197 464.989C919.197 464.989 994.713 361.54 893.714 231.093Z" fill="#FAFCFD"/>
<path d="M893.625 280.21C903.315 280.211 912.91 278.597 922.03 275.368C913.859 259.787 904.357 244.966 893.525 231.095C882.697 244.964 873.198 259.783 865.029 275.362C874.34 278.593 883.935 280.209 893.625 280.21Z" fill="#BE222F"/>
<path d="M919.198 464.99L919.199 469.361L884.143 469.452C881.673 469.452 879.678 467.457 879.773 465.082L919.198 464.99Z" fill="#0C1E41"/>
<path d="M865.239 481.325L865.238 479.805C865.238 477.335 867.138 475.435 869.608 475.435L917.869 475.44C920.339 475.44 922.239 477.34 922.239 479.81L922.239 481.33C922.24 483.8 920.34 485.7 917.87 485.7L869.609 485.695C867.139 485.695 865.144 483.7 865.239 481.325Z" fill="#0C1E41"/>
<path d="M893.689 598.309C893.784 597.264 894.069 588.619 903.853 581.874C914.208 574.75 916.011 560.025 916.011 560.025L919.622 571.806C942.229 530.197 912.775 495.994 912.775 495.994L893.585 495.992L874.394 495.99C874.394 495.99 844.947 530.188 867.562 571.801L871.17 560.021C871.17 560.021 872.977 574.746 883.333 581.872C893.309 588.618 893.689 597.169 893.689 598.309Z" fill="#ED6A51"/>
<path d="M883.963 582.123C883.868 582.028 883.678 581.838 883.488 581.838C883.678 582.028 883.868 582.028 883.963 582.123Z" fill="#BE202E"/>
<path d="M893.719 562.916C893.719 562.156 894.004 556.55 900.368 552.276C907.113 547.622 908.346 531.756 908.346 531.756L910.818 545.627C925.635 518.458 906.253 496.036 906.253 496.036L893.713 496.035L881.173 496.033C881.173 496.033 861.89 518.357 876.617 545.624L879.086 531.754C879.086 531.754 880.228 547.524 887.068 552.275C893.434 556.55 893.719 562.156 893.719 562.916Z" fill="#EFAFA3"/>
<path d="M893.682 539.733C893.967 536.788 895.581 534.223 898.051 532.703C902.421 529.663 903.275 519.308 903.275 519.308L904.796 528.429C914.389 510.664 901.848 496.033 901.848 496.033L893.678 496.032L885.508 496.031C885.508 496.031 872.969 510.66 882.566 528.427L884.085 519.307C884.085 519.307 884.846 529.567 889.311 532.702C891.781 534.222 893.397 536.788 893.682 539.733Z" fill="#F2DCD6"/>
<path d="M912.599 492.714L874.789 492.71C872.129 492.71 870.038 490.62 870.038 487.96L870.038 491.19C870.039 493.85 872.129 495.94 874.789 495.941L912.599 495.944C915.259 495.944 917.349 493.855 917.349 491.195L917.349 487.964C917.349 490.624 915.259 492.714 912.599 492.714Z" fill="#284C98"/>
<path d="M874.788 492.71L912.599 492.713C915.259 492.713 917.349 490.624 917.349 487.964L917.348 485.684L870.038 485.679L870.038 487.959C870.038 490.619 872.223 492.804 874.788 492.71Z" fill="#284C98"/>
<path d="M917.3 487.98L917.3 491.21C917.3 493.87 915.211 495.96 912.55 495.96L874.74 495.956C872.08 495.956 869.99 493.866 869.99 491.206L869.989 487.976C869.989 490.636 872.08 492.726 874.74 492.726L912.55 492.73C915.21 492.73 917.3 490.64 917.3 487.98Z" fill="#1649A0"/>
<path d="M869.989 487.975C869.989 490.635 872.08 492.725 874.74 492.725L912.55 492.729C915.21 492.729 917.3 490.639 917.3 487.979L917.3 485.699L869.989 485.695L869.989 487.975Z" fill="#1649A0"/>
<path d="M873.916 479.589L872.966 480.539L873.916 481.489L874.866 480.539L873.916 479.589Z" fill="#E6E7E8"/>
<path d="M881.799 479.589L880.849 480.539L881.799 481.489L882.749 480.539L881.799 479.589Z" fill="#E6E7E8"/>
<path d="M889.681 479.591L888.731 480.541L889.682 481.491L890.632 480.541L889.681 479.591Z" fill="#E6E7E8"/>
<path d="M897.565 479.591L896.615 480.541L897.565 481.491L898.515 480.541L897.565 479.591Z" fill="#E6E7E8"/>
<path d="M905.448 479.591L904.498 480.541L905.448 481.491L906.398 480.541L905.448 479.591Z" fill="#E6E7E8"/>
<path d="M913.331 479.593L912.381 480.543L913.331 481.493L914.281 480.543L913.331 479.593Z" fill="#E6E7E8"/>
<path d="M893.714 231.094C914.048 264.347 936.67 393.361 911.879 434.114C899.151 455.013 888.036 462.517 880.152 465.081L893.642 465.083L919.102 465.085C919.197 464.99 994.713 361.541 893.714 231.094Z" fill="#EFAFA3"/>
<path d="M901.886 242.305L902.076 242.685L901.886 242.305Z" fill="#BE222F"/>
<path d="M899.891 239.36C899.986 239.455 900.081 239.55 900.081 239.74C900.081 239.74 899.891 239.55 899.891 239.36Z" fill="#BE222F"/>
<path d="M916.233 264.632C918.324 268.242 920.224 271.852 922.03 275.367C920.414 271.852 918.324 268.242 916.233 264.632Z" fill="#284C98"/>
<path d="M898.085 236.985C898.75 237.84 899.32 238.6 899.985 239.455C899.32 238.6 898.655 237.745 898.085 236.985Z" fill="#284C98"/>
<path d="M900.176 239.835C900.746 240.595 901.411 241.45 901.886 242.305C901.411 241.45 900.746 240.595 900.176 239.835Z" fill="#284C98"/>
<path d="M895.9 234.039C896.565 234.894 897.23 235.749 897.8 236.509C897.23 235.749 896.565 234.894 895.9 234.039Z" fill="#284C98"/>
<path d="M893.715 231.094C894.38 231.949 895.14 232.899 895.805 233.754C895.045 232.994 894.285 232.044 893.715 231.094Z" fill="#284C98"/>
<path d="M902.171 242.591C902.741 243.351 903.311 244.301 903.881 245.061C903.311 244.301 902.836 243.446 902.171 242.591Z" fill="#284C98"/>
<path d="M913.098 259.217C913.573 260.072 914.048 260.927 914.713 261.782C914.048 260.927 913.573 260.072 913.098 259.217Z" fill="#284C98"/>
<path d="M909.582 253.611C910.152 254.561 910.723 255.321 911.293 256.271C910.723 255.321 910.152 254.561 909.582 253.611Z" fill="#284C98"/>
<path d="M905.971 248.101C907.207 249.906 908.442 251.711 909.487 253.516C908.347 251.806 907.207 249.906 905.971 248.101Z" fill="#284C98"/>
<path d="M911.388 256.367C911.863 257.222 912.528 258.077 913.003 258.932C912.433 258.172 911.863 257.222 911.388 256.367Z" fill="#284C98"/>
<path d="M904.071 245.44C904.736 246.295 905.212 247.151 905.877 248.006C905.306 247.056 904.736 246.295 904.071 245.44Z" fill="#284C98"/>
<path d="M914.713 261.971C915.189 262.826 915.664 263.681 916.234 264.631C915.664 263.681 915.189 262.826 914.713 261.971Z" fill="#284C98"/>
<path d="M922.22 275.367C920.414 271.852 918.514 268.242 916.424 264.632L916.329 264.537C915.854 263.681 915.379 262.826 914.808 261.876L914.618 261.686C914.143 260.831 913.668 259.976 913.003 259.121C912.908 259.026 912.908 259.026 912.813 258.931C912.338 258.076 911.768 257.126 911.198 256.366L911.103 256.271C910.533 255.321 909.963 254.561 909.393 253.611C908.157 251.806 907.112 250 905.877 248.195L905.782 248.1C905.117 247.245 904.642 246.39 903.977 245.535C903.882 245.44 903.787 245.345 903.692 245.25C903.122 244.49 902.551 243.54 901.981 242.78L901.791 242.4C901.221 241.64 900.556 240.785 900.081 239.93C899.986 239.835 899.891 239.74 899.891 239.55C899.226 238.695 898.656 237.934 897.991 237.079L897.706 236.794C897.041 235.939 896.376 235.084 895.806 234.324C895.71 234.229 895.71 234.229 895.615 234.134C894.95 233.279 894.19 232.329 893.525 231.474C899.321 240.88 905.308 258.075 910.345 278.881C914.43 277.836 918.325 276.792 922.22 275.367Z" fill="#8E0F1B"/>
<path d="M915.009 365.429C926.761 353.677 926.759 334.622 915.005 322.868C903.251 311.115 884.196 311.113 872.444 322.864C860.693 334.616 860.694 353.671 872.448 365.425C884.202 377.179 903.257 377.181 915.009 365.429Z" fill="#EFAFA3"/>
<path d="M914.912 356.593C926.664 344.841 926.662 325.786 914.908 314.032C903.154 302.279 884.099 302.277 872.348 314.028C860.596 325.78 860.598 344.835 872.352 356.589C884.106 368.343 903.161 368.345 914.912 356.593Z" fill="#1649A0"/>
<path d="M908.684 350.268C916.973 341.979 916.971 328.539 908.681 320.248C900.39 311.957 886.949 311.956 878.66 320.245C870.371 328.534 870.372 341.975 878.663 350.266C886.954 358.556 900.394 358.557 908.684 350.268Z" fill="#58A5DB"/>
<path d="M894.7 310.653C895.277 310.076 895.277 309.14 894.699 308.563C894.122 307.985 893.186 307.985 892.609 308.563C892.032 309.14 892.032 310.075 892.61 310.653C893.187 311.23 894.122 311.23 894.7 310.653Z" fill="#E6E7E8"/>
<path d="M876.556 318.157C877.133 317.58 877.133 316.644 876.556 316.067C875.979 315.489 875.043 315.489 874.466 316.066C873.889 316.644 873.889 317.579 874.466 318.156C875.043 318.734 875.979 318.734 876.556 318.157Z" fill="#E6E7E8"/>
<path d="M869.052 336.299C869.629 335.722 869.629 334.786 869.052 334.209C868.475 333.632 867.539 333.632 866.962 334.209C866.385 334.786 866.385 335.722 866.962 336.299C867.539 336.876 868.475 336.876 869.052 336.299Z" fill="#E6E7E8"/>
<path d="M876.655 354.541C877.232 353.964 877.232 353.029 876.655 352.451C876.077 351.874 875.142 351.874 874.565 352.451C873.987 353.028 873.987 353.964 874.565 354.541C875.142 355.118 876.078 355.118 876.655 354.541Z" fill="#E6E7E8"/>
<path d="M894.8 362.047C895.377 361.47 895.377 360.535 894.8 359.957C894.223 359.38 893.287 359.38 892.71 359.957C892.133 360.534 892.133 361.47 892.71 362.047C893.287 362.624 894.223 362.624 894.8 362.047Z" fill="#E6E7E8"/>
<path d="M912.945 354.545C913.522 353.968 913.522 353.033 912.944 352.455C912.367 351.878 911.431 351.878 910.854 352.455C910.277 353.032 910.277 353.968 910.855 354.545C911.432 355.122 912.368 355.122 912.945 354.545Z" fill="#E6E7E8"/>
<path d="M920.448 336.401C921.025 335.824 921.025 334.888 920.448 334.311C919.87 333.734 918.935 333.733 918.357 334.311C917.78 334.888 917.78 335.823 918.358 336.401C918.935 336.978 919.871 336.978 920.448 336.401Z" fill="#E6E7E8"/>
<path d="M912.941 318.254C913.518 317.677 913.518 316.741 912.941 316.164C912.363 315.587 911.428 315.587 910.851 316.164C910.274 316.741 910.274 317.677 910.851 318.254C911.428 318.831 912.364 318.831 912.941 318.254Z" fill="#E6E7E8"/>
<path d="M876.488 387.07H909.05C910.614 387.07 911.823 388.35 911.823 389.843V421.978C911.823 423.542 910.543 424.822 908.979 424.822H876.488V387.07Z" fill="white"/>
<path d="M876.773 387.071C875.209 387.071 874 388.351 874 389.844V422.05C874 423.472 875.138 424.681 876.559 424.823L890.068 387L876.773 387.071Z" fill="#284C98"/>
<path d="M911.823 389.843C911.823 388.279 910.544 387.07 909.051 387.07H901.088L911.823 417.357V389.843Z" fill="#BB2629"/>
<path d="M903.079 418.709H887.651L885.66 424.894H905.069L903.079 418.709Z" fill="#284C98"/>
<path d="M895.472 394.963L890.068 411.457H900.804L895.472 394.963Z" fill="#284C98"/>
</g>
<defs>
<clipPath id="clip0">
<rect width="1790" height="1199" fill="white"/>
</clipPath>
</defs>
</svg>
