<svg width="16" height="16" viewBox="0 0 16 16" fill="none" xmlns="http://www.w3.org/2000/svg">
<path d="M0 3C0 1.34315 1.34315 0 3 0H13C14.6569 0 16 1.34315 16 3V13C16 14.6569 14.6569 16 13 16H3C1.34315 16 0 14.6569 0 13V3Z" fill="#FFF4BB"/>
<path fill-rule="evenodd" clip-rule="evenodd" d="M4.04043 7.04038C4.29427 6.78654 4.70583 6.78654 4.95967 7.04038L7.00005 9.08076L11.5404 4.54038C11.7943 4.28654 12.2058 4.28654 12.4597 4.54038C12.7135 4.79422 12.7135 5.20578 12.4597 5.45962L7.00005 10.9192L4.04043 7.95962C3.78659 7.70578 3.78659 7.29422 4.04043 7.04038Z" fill="#EEC301"/>
</svg>
